<?xml version="1.0" encoding="UTF-8" standalone="no"?>
<!DOCTYPE svg PUBLIC "-//W3C//DTD SVG 1.1//EN" "http://www.w3.org/Graphics/SVG/1.1/DTD/svg11.dtd">
<svg xmlns="http://www.w3.org/2000/svg" xmlns:xlink="http://www.w3.org/1999/xlink" version="1.1" width="446.88pt" height="162pt" viewBox="0 0 446.88 162">
<g enable-background="new">
<clipPath id="cp0">
<path transform="matrix(.24,0,0,.24,0,0)" d="M 0 0 L 1862.5 0 L 1862.5 674.81887 L 0 674.81887 Z " fill-rule="evenodd"/>
</clipPath>
<g clip-path="url(#cp0)">
<path transform="matrix(.71980676,0,0,.71980676,0,0)" d="M 0 0 L 621 0 L 621 225 L 0 225 Z " fill="#ffffff"/>
</g>
<clipPath id="cp1">
<path transform="matrix(.24,0,0,.24,0,0)" d="M 0 0 L 1862.5 0 L 1862.5 671.81967 L 0 671.81967 Z " fill-rule="evenodd"/>
</clipPath>
<g clip-path="url(#cp1)">
<path transform="matrix(.71980676,0,0,.71980676,.35990338,.35990338)" stroke-width="1" stroke-linecap="butt" stroke-miterlimit="10" stroke-linejoin="miter" fill="none" stroke="#000000" d="M 255 221 L 255 2 "/>
<path transform="matrix(.71980676,0,0,.71980676,.35990338,.35990338)" stroke-width="1" stroke-linecap="butt" stroke-miterlimit="10" stroke-linejoin="miter" fill="none" stroke="#000000" d="M 618 121 L 1 121 "/>
<path transform="matrix(.71980676,0,0,.71980676,.35990338,.35990338)" stroke-width="1" stroke-linecap="butt" stroke-miterlimit="10" stroke-linejoin="miter" fill="none" stroke="#000000" d="M 398.5 79.08 L 398.5 69.08 L 427.5 69.08 L 427.5 58.58 L 446.5 74.08 L 427.5 89.58 L 427.5 79.08 L 398.5 79.08 Z "/>
<path transform="matrix(.71980676,0,0,.71980676,0,0)" d="M 101 44.25 L 81 44.25 L 81 104.25 L 101 104.25 " fill="#ffffff"/>
<path transform="matrix(.71980676,0,0,.71980676,0,0)" stroke-width="2" stroke-linecap="butt" stroke-miterlimit="10" stroke-linejoin="miter" fill="none" stroke="#000000" d="M 101 44.25 L 81 44.25 L 81 104.25 L 101 104.25 "/>
<path transform="matrix(.71980676,0,0,.71980676,0,0)" d="M 101 44.25 L 201 44.25 L 201 104.25 L 101 104.25 " fill="#ffffff"/>
<path transform="matrix(.71980676,0,0,.71980676,0,0)" stroke-width="2" stroke-linecap="butt" stroke-miterlimit="10" stroke-linejoin="miter" fill="none" stroke="#000000" d="M 101 44.25 L 201 44.25 L 201 104.25 L 101 104.25 "/>
<path transform="matrix(.71980676,0,0,.71980676,0,0)" stroke-width="2" stroke-linecap="butt" stroke-miterlimit="10" stroke-linejoin="miter" fill="none" stroke="#000000" d="M 101 44.25 L 101 104.25 "/>
</g>
<clipPath id="cp2">
<path transform="matrix(.24,0,0,.24,0,0)" d="M 371.90019 171.7039 L 473.8728 171.7039 L 473.8728 273.6765 L 371.90019 273.6765 Z " fill-rule="evenodd"/>
</clipPath>
<g clip-path="url(#cp2)">
<path transform="matrix(.50986316,0,0,.50986316,92.31522,44.268117)" d="M 36 18 C 35.999998 19.181895 35.88471 20.352437 35.65413 21.511624 C 35.423555 22.670809 35.08212 23.796368 34.629827 24.888298 C 34.177537 25.980229 33.623079 27.01755 32.96645 28.00026 C 32.309823 28.982972 31.563645 29.89219 30.727919 30.727919 C 29.89219 31.563645 28.982972 32.309823 28.00026 32.96645 C 27.01755 33.623079 25.980229 34.177537 24.888298 34.62983 C 23.796368 35.08212 22.670809 35.423555 21.511624 35.654134 C 20.352437 35.88471 19.181895 35.999998 18 36 C 16.818102 35.999998 15.64756 35.88471 14.488373 35.65413 C 13.3291859 35.423555 12.203627 35.08212 11.111696 34.629827 C 10.019766 34.177537 8.982446 33.623079 7.999735 32.96645 C 7.0170238 32.309823 6.107805 31.563645 5.2720777 30.727919 C 4.4363505 29.89219 3.6901732 28.982972 3.0335465 28.00026 C 2.3769198 27.01755 1.8224605 25.980229 1.3701682 24.888298 C .9178759 23.796368 .5764415 22.670809 .3458649 21.511624 C .11528829 20.352437 0 19.181895 0 18 C 0 16.818102 .11528829 15.64756 .3458649 14.488373 C .5764415 13.3291859 .9178759 12.203627 1.3701682 11.111696 C 1.8224605 10.019766 2.3769198 8.982446 3.0335465 7.999735 C 3.6901732 7.0170238 4.4363505 6.107805 5.2720777 5.2720777 C 6.107805 4.4363505 7.0170238 3.6901732 7.999735 3.0335465 C 8.982446 2.3769198 10.019766 1.8224605 11.111696 1.3701682 C 12.203627 .9178759 13.3291859 .5764415 14.488373 .3458649 C 15.64756 .11528829 16.818102 0 18 0 C 19.181895 0 20.352437 .11528829 21.511624 .3458649 C 22.670809 .5764415 23.796368 .9178759 24.888298 1.3701682 C 25.980229 1.8224605 27.01755 2.3769198 28.00026 3.0335465 C 28.982972 3.6901732 29.89219 4.4363505 30.727919 5.2720777 C 31.563645 6.107805 32.309823 7.0170238 32.96645 7.999735 C 33.623079 8.982446 34.177537 10.019766 34.62983 11.111696 C 35.08212 12.203627 35.423555 13.3291859 35.654134 14.488373 C 35.88471 15.64756 35.999998 16.818102 36 18 Z " fill="#ffffff" fill-opacity=".949"/>
<path transform="matrix(.50986316,0,0,.50986316,92.31522,44.268117)" stroke-width="2" stroke-linecap="butt" stroke-miterlimit="4" stroke-linejoin="miter" fill="none" stroke="#000000" d="M 36 18 C 35.999998 19.181895 35.88471 20.352437 35.65413 21.511624 C 35.423555 22.670809 35.08212 23.796368 34.629827 24.888298 C 34.177537 25.980229 33.623079 27.01755 32.96645 28.00026 C 32.309823 28.982972 31.563645 29.89219 30.727919 30.727919 C 29.89219 31.563645 28.982972 32.309823 28.00026 32.96645 C 27.01755 33.623079 25.980229 34.177537 24.888298 34.62983 C 23.796368 35.08212 22.670809 35.423555 21.511624 35.654134 C 20.352437 35.88471 19.181895 35.999998 18 36 C 16.818102 35.999998 15.64756 35.88471 14.488373 35.65413 C 13.3291859 35.423555 12.203627 35.08212 11.111696 34.629827 C 10.019766 34.177537 8.982446 33.623079 7.999735 32.96645 C 7.0170238 32.309823 6.107805 31.563645 5.2720777 30.727919 C 4.4363505 29.89219 3.6901732 28.982972 3.0335465 28.00026 C 2.3769198 27.01755 1.8224605 25.980229 1.3701682 24.888298 C .9178759 23.796368 .5764415 22.670809 .3458649 21.511624 C .11528829 20.352437 0 19.181895 0 18 C 0 16.818102 .11528829 15.64756 .3458649 14.488373 C .5764415 13.3291859 .9178759 12.203627 1.3701682 11.111696 C 1.8224605 10.019766 2.3769198 8.982446 3.0335465 7.999735 C 3.6901732 7.0170238 4.4363505 6.107805 5.2720777 5.2720777 C 6.107805 4.4363505 7.0170238 3.6901732 7.999735 3.0335465 C 8.982446 2.3769198 10.019766 1.8224605 11.111696 1.3701682 C 12.203627 .9178759 13.3291859 .5764415 14.488373 .3458649 C 15.64756 .11528829 16.818102 0 18 0 C 19.181895 0 20.352437 .11528829 21.511624 .3458649 C 22.670809 .5764415 23.796368 .9178759 24.888298 1.3701682 C 25.980229 1.8224605 27.01755 2.3769198 28.00026 3.0335465 C 28.982972 3.6901732 29.89219 4.4363505 30.727919 5.2720777 C 31.563645 6.107805 32.309823 7.0170238 32.96645 7.999735 C 33.623079 8.982446 34.177537 10.019766 34.62983 11.111696 C 35.08212 12.203627 35.423555 13.3291859 35.654134 14.488373 C 35.88471 15.64756 35.999998 16.818102 36 18 Z "/>
</g>
<clipPath id="cp3">
<path transform="matrix(.24,0,0,.24,0,0)" d="M 0 0 L 1862.5 0 L 1862.5 671.81967 L 0 671.81967 Z " fill-rule="evenodd"/>
</clipPath>
<g clip-path="url(#cp3)">
<path transform="matrix(.71980676,0,0,.71980676,.35990338,.35990338)" stroke-width="1" stroke-linecap="butt" stroke-miterlimit="10" stroke-linejoin="miter" fill="none" stroke="#000000" d="M 150 65 L 183.63 65 "/>
<path transform="matrix(.71980676,0,0,.71980676,.35990338,.35990338)" d="M 188.88 65 L 181.88 68.5 L 183.63 65 L 181.88 61.5 L 188.88 65 Z "/>
<path transform="matrix(.71980676,0,0,.71980676,.35990338,.35990338)" stroke-width="1" stroke-linecap="butt" stroke-miterlimit="10" stroke-linejoin="miter" fill="none" stroke="#000000" d="M 188.88 65 L 181.88 68.5 L 183.63 65 L 181.88 61.5 L 188.88 65 Z "/>
<path transform="matrix(.71980676,0,0,.71980676,.35990338,.35990338)" stroke-width="1" stroke-linecap="butt" stroke-miterlimit="10" stroke-linejoin="miter" fill="none" stroke="#000000" d="M 150 83 L 183.63 83 "/>
<path transform="matrix(.71980676,0,0,.71980676,.35990338,.35990338)" d="M 188.88 83 L 181.88 86.5 L 183.63 83 L 181.88 79.5 L 188.88 83 Z "/>
<path transform="matrix(.71980676,0,0,.71980676,.35990338,.35990338)" stroke-width="1" stroke-linecap="butt" stroke-miterlimit="10" stroke-linejoin="miter" fill="none" stroke="#000000" d="M 188.88 83 L 181.88 86.5 L 183.63 83 L 181.88 79.5 L 188.88 83 Z "/>
<g id="Layer-1" data-name="P">
</g>
<text xml:space="preserve" transform="matrix(.000000000000000044075457 .71980676 -.71980676 .000000000000000044075457 189.48912 -84.03744)" font-size="12" font-family="ArialMT"><tspan y="77" x="185.5 188.836 192.172">...</tspan></text>
<g id="Layer-1" data-name="P">
</g>
<text xml:space="preserve" transform="matrix(.71980676 0 0 .71980676 0 0)" font-size="16" font-family="Arial" font-weight="bold"><tspan y="22" x="84.0625 95.6145 106.2865 119.6145 131.1665 136.4945 146.27051 150.7185 160.4945 172.9425 184.4945 194.27051 204.04651">BPMN-FlowNode</tspan></text>
<g id="Layer-1" data-name="P">
</g>
<text xml:space="preserve" transform="matrix(.71980676 0 0 .71980676 0 0)" font-size="16" font-family="Arial" font-weight="bold"><tspan y="22" x="343.95314 355.50514 365.28114 369.72914 378.62513 383.07313 395.52113 404.4171 414.1931 423.0891 429.3131 438.2091 443.5371 447.9851 457.7611 467.5371 471.9851 480.5625 489.4585 503.6825 513.4585 517.9065 526.8025 532.1305">Rule Generation Template</tspan></text>
<path transform="matrix(.71980676,0,0,.71980676,.35990338,.35990338)" stroke-width="1" stroke-linecap="butt" stroke-miterlimit="10" stroke-linejoin="miter" fill="none" stroke="#000000" d="M 618 31 L 1 30.31 "/>
<g id="Layer-1" data-name="P">
</g>
<text xml:space="preserve" transform="matrix(.71980676 0 0 .71980676 0 0)" font-size="12" font-family="Arial" font-weight="bold"><tspan y="78" x="3 11.004001 15.000001 21.672 26.34 30.336 33.672 40.344 47.016004 53.688005 61.020006">Start event</tspan></text>
<g id="Layer-1" data-name="P">
</g>
<text xml:space="preserve" transform="matrix(.71980676 0 0 .71980676 0 0)" font-size="12" font-family="ArialMT"><tspan y="61" x="155.15625">1</tspan></text>
<g id="Layer-1" data-name="P">
</g>
<text xml:space="preserve" transform="matrix(.71980676 0 0 .71980676 0 0)" font-size="12" font-family="ArialMT"><tspan y="93" x="155.15625">n</tspan></text>
<path transform="matrix(.71980676,0,0,.71980676,0,0)" d="M 288 44 L 268 44 L 268 104 L 288 104 " fill="#ffffff"/>
<path transform="matrix(.71980676,0,0,.71980676,0,0)" stroke-width="2" stroke-linecap="butt" stroke-miterlimit="10" stroke-linejoin="miter" fill="none" stroke="#000000" d="M 288 44 L 268 44 L 268 104 L 288 104 "/>
<path transform="matrix(.71980676,0,0,.71980676,0,0)" d="M 288 44 L 388 44 L 388 104 L 288 104 " fill="#ffffff"/>
<path transform="matrix(.71980676,0,0,.71980676,0,0)" stroke-width="2" stroke-linecap="butt" stroke-miterlimit="10" stroke-linejoin="miter" fill="none" stroke="#000000" d="M 288 44 L 388 44 L 388 104 L 288 104 "/>
<path transform="matrix(.71980676,0,0,.71980676,0,0)" stroke-width="2" stroke-linecap="butt" stroke-miterlimit="10" stroke-linejoin="miter" fill="none" stroke="#000000" d="M 288 44 L 288 104 "/>
</g>
<clipPath id="cp4">
<path transform="matrix(.24,0,0,.24,0,0)" d="M 932.7496 170.9541 L 1034.7222 170.9541 L 1034.7222 272.92674 L 932.7496 272.92674 Z " fill-rule="evenodd"/>
</clipPath>
<g clip-path="url(#cp4)">
<path transform="matrix(.50986316,0,0,.50986316,226.91907,44.08816)" d="M 36 18 C 35.999998 19.181895 35.88471 20.352437 35.65413 21.511624 C 35.423555 22.670809 35.08212 23.796368 34.629827 24.888298 C 34.177537 25.980229 33.623079 27.01755 32.96645 28.00026 C 32.309823 28.982972 31.563645 29.89219 30.727919 30.727919 C 29.89219 31.563645 28.982972 32.309823 28.00026 32.96645 C 27.01755 33.623079 25.980229 34.177537 24.888298 34.62983 C 23.796368 35.08212 22.670809 35.423555 21.511624 35.654134 C 20.352437 35.88471 19.181895 35.999998 18 36 C 16.818102 35.999998 15.64756 35.88471 14.488373 35.65413 C 13.3291859 35.423555 12.203627 35.08212 11.111696 34.629827 C 10.019766 34.177537 8.982446 33.623079 7.999735 32.96645 C 7.0170238 32.309823 6.107805 31.563645 5.2720777 30.727919 C 4.4363505 29.89219 3.6901732 28.982972 3.0335465 28.00026 C 2.3769198 27.01755 1.8224605 25.980229 1.3701682 24.888298 C .9178759 23.796368 .5764415 22.670809 .3458649 21.511624 C .11528829 20.352437 0 19.181895 0 18 C 0 16.818102 .11528829 15.64756 .3458649 14.488373 C .5764415 13.3291859 .9178759 12.203627 1.3701682 11.111696 C 1.8224605 10.019766 2.3769198 8.982446 3.0335465 7.999735 C 3.6901732 7.0170238 4.4363505 6.107805 5.2720777 5.2720777 C 6.107805 4.4363505 7.0170238 3.6901732 7.999735 3.0335465 C 8.982446 2.3769198 10.019766 1.8224605 11.111696 1.3701682 C 12.203627 .9178759 13.3291859 .5764415 14.488373 .3458649 C 15.64756 .11528829 16.818102 0 18 0 C 19.181895 0 20.352437 .11528829 21.511624 .3458649 C 22.670809 .5764415 23.796368 .9178759 24.888298 1.3701682 C 25.980229 1.8224605 27.01755 2.3769198 28.00026 3.0335465 C 28.982972 3.6901732 29.89219 4.4363505 30.727919 5.2720777 C 31.563645 6.107805 32.309823 7.0170238 32.96645 7.999735 C 33.623079 8.982446 34.177537 10.019766 34.62983 11.111696 C 35.08212 12.203627 35.423555 13.3291859 35.654134 14.488373 C 35.88471 15.64756 35.999998 16.818102 36 18 Z " fill="#ffffff" fill-opacity=".949"/>
<path transform="matrix(.50986316,0,0,.50986316,226.91907,44.08816)" stroke-width="2" stroke-linecap="butt" stroke-miterlimit="4" stroke-linejoin="miter" fill="none" stroke="#000000" d="M 36 18 C 35.999998 19.181895 35.88471 20.352437 35.65413 21.511624 C 35.423555 22.670809 35.08212 23.796368 34.629827 24.888298 C 34.177537 25.980229 33.623079 27.01755 32.96645 28.00026 C 32.309823 28.982972 31.563645 29.89219 30.727919 30.727919 C 29.89219 31.563645 28.982972 32.309823 28.00026 32.96645 C 27.01755 33.623079 25.980229 34.177537 24.888298 34.62983 C 23.796368 35.08212 22.670809 35.423555 21.511624 35.654134 C 20.352437 35.88471 19.181895 35.999998 18 36 C 16.818102 35.999998 15.64756 35.88471 14.488373 35.65413 C 13.3291859 35.423555 12.203627 35.08212 11.111696 34.629827 C 10.019766 34.177537 8.982446 33.623079 7.999735 32.96645 C 7.0170238 32.309823 6.107805 31.563645 5.2720777 30.727919 C 4.4363505 29.89219 3.6901732 28.982972 3.0335465 28.00026 C 2.3769198 27.01755 1.8224605 25.980229 1.3701682 24.888298 C .9178759 23.796368 .5764415 22.670809 .3458649 21.511624 C .11528829 20.352437 0 19.181895 0 18 C 0 16.818102 .11528829 15.64756 .3458649 14.488373 C .5764415 13.3291859 .9178759 12.203627 1.3701682 11.111696 C 1.8224605 10.019766 2.3769198 8.982446 3.0335465 7.999735 C 3.6901732 7.0170238 4.4363505 6.107805 5.2720777 5.2720777 C 6.107805 4.4363505 7.0170238 3.6901732 7.999735 3.0335465 C 8.982446 2.3769198 10.019766 1.8224605 11.111696 1.3701682 C 12.203627 .9178759 13.3291859 .5764415 14.488373 .3458649 C 15.64756 .11528829 16.818102 0 18 0 C 19.181895 0 20.352437 .11528829 21.511624 .3458649 C 22.670809 .5764415 23.796368 .9178759 24.888298 1.3701682 C 25.980229 1.8224605 27.01755 2.3769198 28.00026 3.0335465 C 28.982972 3.6901732 29.89219 4.4363505 30.727919 5.2720777 C 31.563645 6.107805 32.309823 7.0170238 32.96645 7.999735 C 33.623079 8.982446 34.177537 10.019766 34.62983 11.111696 C 35.08212 12.203627 35.423555 13.3291859 35.654134 14.488373 C 35.88471 15.64756 35.999998 16.818102 36 18 Z "/>
</g>
<clipPath id="cp5">
<path transform="matrix(.24,0,0,.24,0,0)" d="M 0 0 L 1862.5 0 L 1862.5 671.81967 L 0 671.81967 Z " fill-rule="evenodd"/>
</clipPath>
<g clip-path="url(#cp5)">
<path transform="matrix(.71980676,0,0,.71980676,.35990338,.35990338)" stroke-width="1" stroke-linecap="butt" stroke-miterlimit="10" stroke-linejoin="miter" fill="none" stroke="#000000" d="M 337 64.75 L 370.63 64.75 "/>
<path transform="matrix(.71980676,0,0,.71980676,.35990338,.35990338)" d="M 375.88 64.75 L 368.88 68.25 L 370.63 64.75 L 368.88 61.25 L 375.88 64.75 Z "/>
<path transform="matrix(.71980676,0,0,.71980676,.35990338,.35990338)" stroke-width="1" stroke-linecap="butt" stroke-miterlimit="10" stroke-linejoin="miter" fill="none" stroke="#000000" d="M 375.88 64.75 L 368.88 68.25 L 370.63 64.75 L 368.88 61.25 L 375.88 64.75 Z "/>
<path transform="matrix(.71980676,0,0,.71980676,.35990338,.35990338)" stroke-width="1" stroke-linecap="butt" stroke-miterlimit="10" stroke-linejoin="miter" fill="none" stroke="#000000" d="M 337 82.75 L 370.63 82.75 "/>
<path transform="matrix(.71980676,0,0,.71980676,.35990338,.35990338)" d="M 375.88 82.75 L 368.88 86.25 L 370.63 82.75 L 368.88 79.25 L 375.88 82.75 Z "/>
<path transform="matrix(.71980676,0,0,.71980676,.35990338,.35990338)" stroke-width="1" stroke-linecap="butt" stroke-miterlimit="10" stroke-linejoin="miter" fill="none" stroke="#000000" d="M 375.88 82.75 L 368.88 86.25 L 370.63 82.75 L 368.88 79.25 L 375.88 82.75 Z "/>
<g id="Layer-1" data-name="P">
</g>
<text xml:space="preserve" transform="matrix(.000000000000000044075457 .71980676 -.71980676 .000000000000000044075457 323.91304 -218.82126)" font-size="12" font-family="ArialMT"><tspan y="77" x="372.5 375.836 379.172">...</tspan></text>
<path transform="matrix(.71980676,0,0,.71980676,.35990338,.35990338)" d="M 326.5 81.25 C 326.49998 81.7917 326.45033 82.3282 326.35105 82.85949 C 326.25178 83.39078 326.10475 83.90666 325.91 84.40713 C 325.71528 84.90759 325.47657 85.38303 325.19383 85.83344 C 324.91114 86.28385 324.58988 86.70058 324.23005 87.083629 C 323.8702 87.46667 323.47874 87.80866 323.0556 88.10962 C 322.63249 88.410579 322.18586 88.6647 321.71574 88.872 C 321.2456 89.0793 320.761 89.235797 320.26194 89.34148 C 319.76283 89.44715 319.25886 89.49999 318.75 89.5 C 318.2411 89.49999 317.7371 89.44715 317.238 89.34148 C 316.7389 89.235797 316.2543 89.0793 315.78419 88.872 C 315.31404 88.6647 314.8674 88.41057 314.4443 88.10961 C 314.02119 87.80866 313.6297 87.46667 313.2699 87.083629 C 312.91007 86.70058 312.5888 86.28385 312.3061 85.83344 C 312.02339 85.38303 311.78465 84.90759 311.5899 84.40713 C 311.39518 83.90666 311.24818 83.39078 311.1489 82.85949 C 311.04963 82.3282 310.99998 81.7917 311 81.25 C 310.99998 80.7083 311.04963 80.1718 311.1489 79.6405 C 311.24818 79.10921 311.39518 78.59332 311.5899 78.09286 C 311.78465 77.592388 312.02339 77.11694 312.3061 76.666538 C 312.5888 76.216129 312.91007 75.7994 313.2699 75.41636 C 313.6297 75.03332 314.02119 74.69132 314.4443 74.390369 C 314.8674 74.08941 315.31404 73.83528 315.78419 73.62798 C 316.2543 73.420688 316.7389 73.2642 317.238 73.158519 C 317.7371 73.05284 318.2411 73 318.75 73 C 319.25886 73 319.76283 73.05284 320.26194 73.158519 C 320.761 73.2642 321.2456 73.420688 321.71574 73.62798 C 322.18586 73.83528 322.63249 74.08941 323.0556 74.39036 C 323.47874 74.691318 323.8702 75.03332 324.23005 75.41636 C 324.58988 75.7994 324.91114 76.216129 325.19386 76.66654 C 325.47657 77.11694 325.71528 77.592388 325.91 78.09286 C 326.10475 78.59332 326.25178 79.10921 326.35105 79.6405 C 326.45033 80.1718 326.49998 80.7083 326.5 81.25 Z " fill="#009900"/>
<g id="Layer-1" data-name="P">
</g>
<text fill="#ffffff" xml:space="preserve" transform="matrix(.71980676 0 0 .71980676 0 0)" font-size="12" font-family="ArialMT"><tspan y="85" x="315.65626">1</tspan></text>
<g id="Layer-1" data-name="P">
</g>
<text xml:space="preserve" transform="matrix(.71980676 0 0 .71980676 0 0)" font-size="12" font-family="ArialMT"><tspan y="61" x="342.15626">1</tspan></text>
<g id="Layer-1" data-name="P">
</g>
<text xml:space="preserve" transform="matrix(.71980676 0 0 .71980676 0 0)" font-size="12" font-family="ArialMT"><tspan y="93" x="342.15626">n</tspan></text>
<path transform="matrix(.71980676,0,0,.71980676,.35990338,.35990338)" d="M 275.5 45.25 C 275.49998 45.7917 275.45036 46.328199 275.35108 46.85949 C 275.25178 47.39078 275.10478 47.906667 274.91004 48.407136 C 274.7153 48.9076 274.4766 49.383039 274.19389 49.83345 C 273.91117 50.283857 273.5899 50.700586 273.23008 51.08363 C 272.87025 51.466669 272.4788 51.808668 272.05567 52.10962 C 271.63255 52.410573 271.1859 52.6647 270.7158 52.872 C 270.24568 53.079305 269.76106 53.235795 269.26194 53.341474 C 268.76286 53.447156 268.25889 53.499998 267.75 53.5 C 267.24113 53.499998 266.73713 53.447156 266.238 53.341474 C 265.73893 53.235795 265.2543 53.079305 264.78419 52.872 C 264.31407 52.6647 263.86744 52.410573 263.4443 52.10962 C 263.02119 51.808668 262.62974 51.466669 262.26994 51.08363 C 261.9101 50.700586 261.5888 50.283857 261.30613 49.83345 C 261.02339 49.383039 260.78465 48.9076 260.5899 48.407136 C 260.39518 47.906667 260.24815 47.39078 260.14888 46.85949 C 260.0496 46.328199 259.99998 45.7917 260 45.25 C 259.99998 44.708295 260.0496 44.171796 260.14888 43.6405 C 260.24815 43.109209 260.39518 42.593328 260.5899 42.092859 C 260.78465 41.59239 261.02336 41.116949 261.3061 40.66654 C 261.5888 40.21613 261.9101 39.799406 262.26994 39.416368 C 262.62974 39.03332 263.02119 38.691324 263.4443 38.39037 C 263.86744 38.089418 264.31407 37.83529 264.78419 37.627988 C 265.2543 37.420686 265.73893 37.2642 266.238 37.15852 C 266.73713 37.05284 267.24113 37 267.75 37 C 268.25889 37 268.76286 37.05284 269.26194 37.15852 C 269.76106 37.2642 270.24568 37.420686 270.7158 37.627988 C 271.1859 37.83529 271.63255 38.089418 272.05567 38.39037 C 272.4788 38.691324 272.87025 39.03332 273.23008 39.416368 C 273.5899 39.799406 273.91117 40.21613 274.19389 40.66654 C 274.4766 41.116949 274.7153 41.59239 274.91004 42.092859 C 275.10478 42.593328 275.25178 43.109209 275.35108 43.6405 C 275.45036 44.171796 275.49998 44.708295 275.5 45.25 Z " fill="#009900"/>
<path transform="matrix(.71980676,0,0,.71980676,0,0)" d="M 478 44 L 458 44 L 458 104 L 478 104 " fill="#ffffff"/>
<path transform="matrix(.71980676,0,0,.71980676,0,0)" stroke-width="2" stroke-linecap="butt" stroke-miterlimit="10" stroke-linejoin="miter" fill="none" stroke="#000000" d="M 478 44 L 458 44 L 458 104 L 478 104 "/>
<path transform="matrix(.71980676,0,0,.71980676,0,0)" d="M 478 44 L 578 44 L 578 104 L 478 104 " fill="#ffffff"/>
<path transform="matrix(.71980676,0,0,.71980676,0,0)" stroke-width="2" stroke-linecap="butt" stroke-miterlimit="10" stroke-linejoin="miter" fill="none" stroke="#000000" d="M 478 44 L 578 44 L 578 104 L 478 104 "/>
<path transform="matrix(.71980676,0,0,.71980676,0,0)" stroke-width="2" stroke-linecap="butt" stroke-miterlimit="10" stroke-linejoin="miter" fill="none" stroke="#000000" d="M 478 44 L 478 104 "/>
</g>
<clipPath id="cp6">
<path transform="matrix(.24,0,0,.24,0,0)" d="M 1502.5967 170.9541 L 1604.5692 170.9541 L 1604.5692 272.92674 L 1502.5967 272.92674 Z " fill-rule="evenodd"/>
</clipPath>
<g clip-path="url(#cp6)">
<path transform="matrix(.50986316,0,0,.50986316,363.68238,44.08816)" d="M 36 18 C 35.999998 19.181895 35.88471 20.352437 35.65413 21.511624 C 35.423555 22.670809 35.08212 23.796368 34.629827 24.888298 C 34.177537 25.980229 33.623079 27.01755 32.96645 28.00026 C 32.309823 28.982972 31.563645 29.89219 30.727919 30.727919 C 29.89219 31.563645 28.982972 32.309823 28.00026 32.96645 C 27.01755 33.623079 25.980229 34.177537 24.888298 34.62983 C 23.796368 35.08212 22.670809 35.423555 21.511624 35.654134 C 20.352437 35.88471 19.181895 35.999998 18 36 C 16.818102 35.999998 15.64756 35.88471 14.488373 35.65413 C 13.3291859 35.423555 12.203627 35.08212 11.111696 34.629827 C 10.019766 34.177537 8.982446 33.623079 7.999735 32.96645 C 7.0170238 32.309823 6.107805 31.563645 5.2720777 30.727919 C 4.4363505 29.89219 3.6901732 28.982972 3.0335465 28.00026 C 2.3769198 27.01755 1.8224605 25.980229 1.3701682 24.888298 C .9178759 23.796368 .5764415 22.670809 .3458649 21.511624 C .11528829 20.352437 0 19.181895 0 18 C 0 16.818102 .11528829 15.64756 .3458649 14.488373 C .5764415 13.3291859 .9178759 12.203627 1.3701682 11.111696 C 1.8224605 10.019766 2.3769198 8.982446 3.0335465 7.999735 C 3.6901732 7.0170238 4.4363505 6.107805 5.2720777 5.2720777 C 6.107805 4.4363505 7.0170238 3.6901732 7.999735 3.0335465 C 8.982446 2.3769198 10.019766 1.8224605 11.111696 1.3701682 C 12.203627 .9178759 13.3291859 .5764415 14.488373 .3458649 C 15.64756 .11528829 16.818102 0 18 0 C 19.181895 0 20.352437 .11528829 21.511624 .3458649 C 22.670809 .5764415 23.796368 .9178759 24.888298 1.3701682 C 25.980229 1.8224605 27.01755 2.3769198 28.00026 3.0335465 C 28.982972 3.6901732 29.89219 4.4363505 30.727919 5.2720777 C 31.563645 6.107805 32.309823 7.0170238 32.96645 7.999735 C 33.623079 8.982446 34.177537 10.019766 34.62983 11.111696 C 35.08212 12.203627 35.423555 13.3291859 35.654134 14.488373 C 35.88471 15.64756 35.999998 16.818102 36 18 Z " fill="#ffffff" fill-opacity=".949"/>
<path transform="matrix(.50986316,0,0,.50986316,363.68238,44.08816)" stroke-width="2" stroke-linecap="butt" stroke-miterlimit="4" stroke-linejoin="miter" fill="none" stroke="#000000" d="M 36 18 C 35.999998 19.181895 35.88471 20.352437 35.65413 21.511624 C 35.423555 22.670809 35.08212 23.796368 34.629827 24.888298 C 34.177537 25.980229 33.623079 27.01755 32.96645 28.00026 C 32.309823 28.982972 31.563645 29.89219 30.727919 30.727919 C 29.89219 31.563645 28.982972 32.309823 28.00026 32.96645 C 27.01755 33.623079 25.980229 34.177537 24.888298 34.62983 C 23.796368 35.08212 22.670809 35.423555 21.511624 35.654134 C 20.352437 35.88471 19.181895 35.999998 18 36 C 16.818102 35.999998 15.64756 35.88471 14.488373 35.65413 C 13.3291859 35.423555 12.203627 35.08212 11.111696 34.629827 C 10.019766 34.177537 8.982446 33.623079 7.999735 32.96645 C 7.0170238 32.309823 6.107805 31.563645 5.2720777 30.727919 C 4.4363505 29.89219 3.6901732 28.982972 3.0335465 28.00026 C 2.3769198 27.01755 1.8224605 25.980229 1.3701682 24.888298 C .9178759 23.796368 .5764415 22.670809 .3458649 21.511624 C .11528829 20.352437 0 19.181895 0 18 C 0 16.818102 .11528829 15.64756 .3458649 14.488373 C .5764415 13.3291859 .9178759 12.203627 1.3701682 11.111696 C 1.8224605 10.019766 2.3769198 8.982446 3.0335465 7.999735 C 3.6901732 7.0170238 4.4363505 6.107805 5.2720777 5.2720777 C 6.107805 4.4363505 7.0170238 3.6901732 7.999735 3.0335465 C 8.982446 2.3769198 10.019766 1.8224605 11.111696 1.3701682 C 12.203627 .9178759 13.3291859 .5764415 14.488373 .3458649 C 15.64756 .11528829 16.818102 0 18 0 C 19.181895 0 20.352437 .11528829 21.511624 .3458649 C 22.670809 .5764415 23.796368 .9178759 24.888298 1.3701682 C 25.980229 1.8224605 27.01755 2.3769198 28.00026 3.0335465 C 28.982972 3.6901732 29.89219 4.4363505 30.727919 5.2720777 C 31.563645 6.107805 32.309823 7.0170238 32.96645 7.999735 C 33.623079 8.982446 34.177537 10.019766 34.62983 11.111696 C 35.08212 12.203627 35.423555 13.3291859 35.654134 14.488373 C 35.88471 15.64756 35.999998 16.818102 36 18 Z "/>
</g>
<clipPath id="cp7">
<path transform="matrix(.24,0,0,.24,0,0)" d="M 0 0 L 1862.5 0 L 1862.5 671.81967 L 0 671.81967 Z " fill-rule="evenodd"/>
</clipPath>
<g clip-path="url(#cp7)">
<path transform="matrix(.71980676,0,0,.71980676,.35990338,.35990338)" stroke-width="1" stroke-linecap="butt" stroke-miterlimit="10" stroke-linejoin="miter" fill="none" stroke="#000000" d="M 527 64.75 L 560.63 64.75 "/>
<path transform="matrix(.71980676,0,0,.71980676,.35990338,.35990338)" d="M 565.88 64.75 L 558.88 68.25 L 560.63 64.75 L 558.88 61.25 L 565.88 64.75 Z "/>
<path transform="matrix(.71980676,0,0,.71980676,.35990338,.35990338)" stroke-width="1" stroke-linecap="butt" stroke-miterlimit="10" stroke-linejoin="miter" fill="none" stroke="#000000" d="M 565.88 64.75 L 558.88 68.25 L 560.63 64.75 L 558.88 61.25 L 565.88 64.75 Z "/>
<path transform="matrix(.71980676,0,0,.71980676,.35990338,.35990338)" stroke-width="1" stroke-linecap="butt" stroke-miterlimit="10" stroke-linejoin="miter" fill="none" stroke="#000000" d="M 527 82.75 L 560.63 82.75 "/>
<path transform="matrix(.71980676,0,0,.71980676,.35990338,.35990338)" d="M 565.88 82.75 L 558.88 86.25 L 560.63 82.75 L 558.88 79.25 L 565.88 82.75 Z "/>
<path transform="matrix(.71980676,0,0,.71980676,.35990338,.35990338)" stroke-width="1" stroke-linecap="butt" stroke-miterlimit="10" stroke-linejoin="miter" fill="none" stroke="#000000" d="M 565.88 82.75 L 558.88 86.25 L 560.63 82.75 L 558.88 79.25 L 565.88 82.75 Z "/>
<g id="Layer-1" data-name="P">
</g>
<text xml:space="preserve" transform="matrix(.000000000000000044075457 .71980676 -.71980676 .000000000000000044075457 460.67634 -355.58454)" font-size="12" font-family="ArialMT"><tspan y="77" x="562.5 565.836 569.172">...</tspan></text>
<path transform="matrix(.71980676,0,0,.71980676,.35990338,.35990338)" d="M 553.5 64.25 C 553.5 64.791698 553.4503 65.32819 553.351 65.8595 C 553.2518 66.390789 553.10476 66.90666 552.91 67.407138 C 552.7152 67.9076 552.4765 68.38304 552.1938 68.83345 C 551.9111 69.28386 551.58987 69.700588 551.23007 70.083629 C 550.87026 70.46667 550.47879 70.80866 550.0556 71.10962 C 549.6325 71.41057 549.1859 71.664699 548.71578 71.872 C 548.2456 72.0793 547.76107 72.235797 547.26199 72.34147 C 546.7629 72.44716 546.25888 72.5 545.75 72.5 C 545.24118 72.5 544.7371 72.44716 544.23806 72.34147 C 543.73898 72.235797 543.25436 72.0793 542.7842 71.872 C 542.314 71.664699 541.86746 71.41057 541.4443 71.10961 C 541.0212 70.80866 540.6297 70.46667 540.2699 70.083629 C 539.9101 69.700588 539.5888 69.28386 539.306 68.83345 C 539.0234 68.38304 538.78469 67.9076 538.5899 67.407138 C 538.3952 66.90666 538.24819 66.390789 538.14889 65.8595 C 538.0496 65.32819 538 64.791698 538 64.25 C 538 63.708299 538.0496 63.1718 538.14889 62.640504 C 538.24819 62.109205 538.3952 61.593324 538.5899 61.092855 C 538.78469 60.592386 539.0234 60.116945 539.306 59.66654 C 539.5888 59.21613 539.9101 58.799406 540.2699 58.416364 C 540.6297 58.03332 541.0212 57.691324 541.4443 57.39037 C 541.8674 57.089418 542.31399 56.83529 542.7841 56.627988 C 543.2543 56.42069 543.7389 56.2642 544.23806 56.15852 C 544.7371 56.05284 545.24118 56 545.75 56 C 546.25888 56 546.7629 56.05284 547.26199 56.158525 C 547.76107 56.264204 548.2456 56.420694 548.71578 56.62799 C 549.1859 56.83529 549.6325 57.089418 550.0556 57.39037 C 550.47879 57.691324 550.87026 58.03332 551.23007 58.416364 C 551.58987 58.799406 551.9111 59.21613 552.1938 59.66654 C 552.4765 60.116945 552.7152 60.592386 552.91 61.092855 C 553.10476 61.593324 553.2518 62.109205 553.351 62.640504 C 553.4503 63.1718 553.5 63.708299 553.5 64.25 Z " fill="#009900"/>
<g id="Layer-1" data-name="P">
</g>
<text fill="#ffffff" xml:space="preserve" transform="matrix(.71980676 0 0 .71980676 0 0)" font-size="12" font-family="ArialMT"><tspan y="68" x="542.65628">1</tspan></text>
<path transform="matrix(.71980676,0,0,.71980676,.35990338,.35990338)" d="M 553.5 82.75 C 553.5 83.291698 553.4503 83.82819 553.351 84.35948 C 553.2518 84.89078 553.10476 85.406658 552.91 85.90712 C 552.7152 86.407588 552.4765 86.883029 552.1938 87.333438 C 551.9111 87.783847 551.58987 88.20057 551.23007 88.58362 C 550.87026 88.96666 550.47879 89.308658 550.0556 89.60961 C 549.6325 89.91057 549.1859 90.164699 548.71578 90.371997 C 548.2456 90.57929 547.76107 90.73579 547.26199 90.84146 C 546.7629 90.94715 546.25888 90.99999 545.75 91 C 545.24118 90.99999 544.7371 90.94715 544.23806 90.84146 C 543.73898 90.73579 543.25436 90.57929 542.7842 90.371997 C 542.314 90.164699 541.86746 89.91057 541.4443 89.60961 C 541.0212 89.308658 540.6297 88.96666 540.2699 88.58362 C 539.9101 88.20057 539.5888 87.783847 539.306 87.33343 C 539.0234 86.883029 538.78469 86.407588 538.5899 85.90712 C 538.3952 85.406658 538.24819 84.89078 538.14889 84.35948 C 538.0496 83.82819 538 83.291698 538 82.75 C 538 82.20829 538.0496 81.67179 538.14889 81.140499 C 538.24819 80.60921 538.3952 80.09332 538.5899 79.59286 C 538.78469 79.092388 539.0234 78.61694 539.306 78.16654 C 539.5888 77.71613 539.9101 77.29941 540.2699 76.91637 C 540.6297 76.533329 541.0212 76.19132 541.4443 75.890369 C 541.8674 75.58942 542.31399 75.33529 542.7841 75.12798 C 543.2543 74.920688 543.7389 74.7642 544.23806 74.658519 C 544.7371 74.55284 545.24118 74.5 545.75 74.5 C 546.25888 74.5 546.7629 74.55284 547.26199 74.658519 C 547.76107 74.7642 548.2456 74.920688 548.71578 75.12798 C 549.1859 75.33529 549.6325 75.58942 550.0556 75.89037 C 550.47879 76.19133 550.87026 76.533329 551.23007 76.91637 C 551.58987 77.29941 551.9111 77.71613 552.1938 78.166538 C 552.4765 78.61694 552.7152 79.092388 552.91 79.59286 C 553.10476 80.09332 553.2518 80.60921 553.351 81.140499 C 553.4503 81.67179 553.5 82.20829 553.5 82.75 Z " fill="#009900"/>
<g id="Layer-1" data-name="P">
</g>
<text fill="#ffffff" xml:space="preserve" transform="matrix(.71980676 0 0 .71980676 0 0)" font-size="12" font-family="ArialMT"><tspan y="87" x="542.65628">1</tspan></text>
<g id="Layer-1" data-name="P">
</g>
<text xml:space="preserve" transform="matrix(.71980676 0 0 .71980676 0 0)" font-size="12" font-family="ArialMT"><tspan y="61" x="532.15628">1</tspan></text>
<g id="Layer-1" data-name="P">
</g>
<text xml:space="preserve" transform="matrix(.71980676 0 0 .71980676 0 0)" font-size="12" font-family="ArialMT"><tspan y="93" x="532.15628">n</tspan></text>
<path transform="matrix(.71980676,0,0,.71980676,0,0)" d="M 101 145.38 L 81 145.38 L 81 205.63 L 101 205.63 " fill="#ffffff"/>
<path transform="matrix(.71980676,0,0,.71980676,0,0)" stroke-width="2" stroke-linecap="butt" stroke-miterlimit="10" stroke-linejoin="miter" fill="none" stroke="#000000" d="M 101 145.38 L 81 145.38 L 81 205.63 L 101 205.63 "/>
<path transform="matrix(.71980676,0,0,.71980676,0,0)" d="M 101 145.38 L 201 145.38 L 201 205.63 L 101 205.63 " fill="#ffffff"/>
<path transform="matrix(.71980676,0,0,.71980676,0,0)" stroke-width="2" stroke-linecap="butt" stroke-miterlimit="10" stroke-linejoin="miter" fill="none" stroke="#000000" d="M 101 145.38 L 201 145.38 L 201 205.63 L 101 205.63 "/>
<path transform="matrix(.71980676,0,0,.71980676,0,0)" stroke-width="2" stroke-linecap="butt" stroke-miterlimit="10" stroke-linejoin="miter" fill="none" stroke="#000000" d="M 101 145.38 L 101 205.63 "/>
</g>
<clipPath id="cp8">
<path transform="matrix(.24,0,0,.24,0,0)" d="M 474.11274 475.01249 L 576.0853 475.01249 L 576.0853 576.9851 L 474.11274 576.9851 Z " fill-rule="evenodd"/>
</clipPath>
<g clip-path="url(#cp8)">
<path transform="matrix(.50986316,0,0,.50986316,116.84623,117.06217)" d="M 36 18 C 35.999998 19.181895 35.88471 20.352437 35.65413 21.511624 C 35.423555 22.670809 35.08212 23.796368 34.629827 24.888298 C 34.177537 25.980229 33.623079 27.01755 32.96645 28.00026 C 32.309823 28.982972 31.563645 29.89219 30.727919 30.727919 C 29.89219 31.563645 28.982972 32.309823 28.00026 32.96645 C 27.01755 33.623079 25.980229 34.177537 24.888298 34.62983 C 23.796368 35.08212 22.670809 35.423555 21.511624 35.654134 C 20.352437 35.88471 19.181895 35.999998 18 36 C 16.818102 35.999998 15.64756 35.88471 14.488373 35.65413 C 13.3291859 35.423555 12.203627 35.08212 11.111696 34.629827 C 10.019766 34.177537 8.982446 33.623079 7.999735 32.96645 C 7.0170238 32.309823 6.107805 31.563645 5.2720777 30.727919 C 4.4363505 29.89219 3.6901732 28.982972 3.0335465 28.00026 C 2.3769198 27.01755 1.8224605 25.980229 1.3701682 24.888298 C .9178759 23.796368 .5764415 22.670809 .3458649 21.511624 C .11528829 20.352437 0 19.181895 0 18 C 0 16.818102 .11528829 15.64756 .3458649 14.488373 C .5764415 13.3291859 .9178759 12.203627 1.3701682 11.111696 C 1.8224605 10.019766 2.3769198 8.982446 3.0335465 7.999735 C 3.6901732 7.0170238 4.4363505 6.107805 5.2720777 5.2720777 C 6.107805 4.4363505 7.0170238 3.6901732 7.999735 3.0335465 C 8.982446 2.3769198 10.019766 1.8224605 11.111696 1.3701682 C 12.203627 .9178759 13.3291859 .5764415 14.488373 .3458649 C 15.64756 .11528829 16.818102 0 18 0 C 19.181895 0 20.352437 .11528829 21.511624 .3458649 C 22.670809 .5764415 23.796368 .9178759 24.888298 1.3701682 C 25.980229 1.8224605 27.01755 2.3769198 28.00026 3.0335465 C 28.982972 3.6901732 29.89219 4.4363505 30.727919 5.2720777 C 31.563645 6.107805 32.309823 7.0170238 32.96645 7.999735 C 33.623079 8.982446 34.177537 10.019766 34.62983 11.111696 C 35.08212 12.203627 35.423555 13.3291859 35.654134 14.488373 C 35.88471 15.64756 35.999998 16.818102 36 18 Z " fill="#ffffff" fill-opacity=".949"/>
<path transform="matrix(.50986316,0,0,.50986316,116.84623,117.06217)" stroke-width="4" stroke-linecap="butt" stroke-miterlimit="4" stroke-linejoin="miter" fill="none" stroke="#000000" d="M 36 18 C 35.999998 19.181895 35.88471 20.352437 35.65413 21.511624 C 35.423555 22.670809 35.08212 23.796368 34.629827 24.888298 C 34.177537 25.980229 33.623079 27.01755 32.96645 28.00026 C 32.309823 28.982972 31.563645 29.89219 30.727919 30.727919 C 29.89219 31.563645 28.982972 32.309823 28.00026 32.96645 C 27.01755 33.623079 25.980229 34.177537 24.888298 34.62983 C 23.796368 35.08212 22.670809 35.423555 21.511624 35.654134 C 20.352437 35.88471 19.181895 35.999998 18 36 C 16.818102 35.999998 15.64756 35.88471 14.488373 35.65413 C 13.3291859 35.423555 12.203627 35.08212 11.111696 34.629827 C 10.019766 34.177537 8.982446 33.623079 7.999735 32.96645 C 7.0170238 32.309823 6.107805 31.563645 5.2720777 30.727919 C 4.4363505 29.89219 3.6901732 28.982972 3.0335465 28.00026 C 2.3769198 27.01755 1.8224605 25.980229 1.3701682 24.888298 C .9178759 23.796368 .5764415 22.670809 .3458649 21.511624 C .11528829 20.352437 0 19.181895 0 18 C 0 16.818102 .11528829 15.64756 .3458649 14.488373 C .5764415 13.3291859 .9178759 12.203627 1.3701682 11.111696 C 1.8224605 10.019766 2.3769198 8.982446 3.0335465 7.999735 C 3.6901732 7.0170238 4.4363505 6.107805 5.2720777 5.2720777 C 6.107805 4.4363505 7.0170238 3.6901732 7.999735 3.0335465 C 8.982446 2.3769198 10.019766 1.8224605 11.111696 1.3701682 C 12.203627 .9178759 13.3291859 .5764415 14.488373 .3458649 C 15.64756 .11528829 16.818102 0 18 0 C 19.181895 0 20.352437 .11528829 21.511624 .3458649 C 22.670809 .5764415 23.796368 .9178759 24.888298 1.3701682 C 25.980229 1.8224605 27.01755 2.3769198 28.00026 3.0335465 C 28.982972 3.6901732 29.89219 4.4363505 30.727919 5.2720777 C 31.563645 6.107805 32.309823 7.0170238 32.96645 7.999735 C 33.623079 8.982446 34.177537 10.019766 34.62983 11.111696 C 35.08212 12.203627 35.423555 13.3291859 35.654134 14.488373 C 35.88471 15.64756 35.999998 16.818102 36 18 Z "/>
</g>
<clipPath id="cp9">
<path transform="matrix(.24,0,0,.24,0,0)" d="M 0 0 L 1862.5 0 L 1862.5 671.81967 L 0 671.81967 Z " fill-rule="evenodd"/>
</clipPath>
<g clip-path="url(#cp9)">
<path transform="matrix(.71980676,0,0,.71980676,0,0)" d="M 170 190 L 181 190 L 181 204 L 170 204 Z " fill="#ffffff"/>
<g id="Layer-1" data-name="P">
</g>
<text xml:space="preserve" transform="matrix(.71980676 0 0 .71980676 0 0)" font-size="12" font-family="ArialMT"><tspan y="201.38" x="171.07805">E</tspan></text>
<path transform="matrix(.71980676,0,0,.71980676,.35990338,.35990338)" stroke-width="1" stroke-linecap="butt" stroke-miterlimit="10" stroke-linejoin="miter" fill="none" stroke="#000000" d="M 126 166.63 L 159.63 166.63 "/>
<path transform="matrix(.71980676,0,0,.71980676,.35990338,.35990338)" d="M 164.88 166.63 L 157.88 170.13 L 159.63 166.63 L 157.88 163.13 L 164.88 166.63 Z "/>
<path transform="matrix(.71980676,0,0,.71980676,.35990338,.35990338)" stroke-width="1" stroke-linecap="butt" stroke-miterlimit="10" stroke-linejoin="miter" fill="none" stroke="#000000" d="M 164.88 166.63 L 157.88 170.13 L 159.63 166.63 L 157.88 163.13 L 164.88 166.63 Z "/>
<path transform="matrix(.71980676,0,0,.71980676,.35990338,.35990338)" stroke-width="1" stroke-linecap="butt" stroke-miterlimit="10" stroke-linejoin="miter" fill="none" stroke="#000000" d="M 126 184.63 L 159.63 184.63 "/>
<path transform="matrix(.71980676,0,0,.71980676,.35990338,.35990338)" d="M 164.88 184.63 L 157.88 188.13 L 159.63 184.63 L 157.88 181.13 L 164.88 184.63 Z "/>
<path transform="matrix(.71980676,0,0,.71980676,.35990338,.35990338)" stroke-width="1" stroke-linecap="butt" stroke-miterlimit="10" stroke-linejoin="miter" fill="none" stroke="#000000" d="M 164.88 184.63 L 157.88 188.13 L 159.63 184.63 L 157.88 181.13 L 164.88 184.63 Z "/>
<g id="Layer-1" data-name="P">
</g>
<text xml:space="preserve" transform="matrix(.000000000000000044075457 .71980676 -.71980676 .000000000000000044075457 220.1745 31.585125)" font-size="12" font-family="ArialMT"><tspan y="179" x="126.5 129.836 133.172">...</tspan></text>
<g id="Layer-1" data-name="P">
</g>
<text xml:space="preserve" transform="matrix(.71980676 0 0 .71980676 0 0)" font-size="12" font-family="ArialMT"><tspan y="163" x="123.15625">1</tspan></text>
<g id="Layer-1" data-name="P">
</g>
<text xml:space="preserve" transform="matrix(.71980676 0 0 .71980676 0 0)" font-size="12" font-family="ArialMT"><tspan y="194" x="123.15625">n</tspan></text>
<g id="Layer-1" data-name="P">
</g>
<text xml:space="preserve" transform="matrix(.71980676 0 0 .71980676 0 0)" font-size="12" font-family="Arial" font-weight="bold"><tspan y="179" x="3 11.004001 18.336 25.668 29.004 35.676004 42.348005 49.020006 56.352006">End event</tspan></text>
<path transform="matrix(.71980676,0,0,.71980676,0,0)" d="M 288 151.38 L 268 151.38 L 268 211.38 L 288 211.38 " fill="#ffffff"/>
<path transform="matrix(.71980676,0,0,.71980676,0,0)" stroke-width="2" stroke-linecap="butt" stroke-miterlimit="10" stroke-linejoin="miter" fill="none" stroke="#000000" d="M 288 151.38 L 268 151.38 L 268 211.38 L 288 211.38 "/>
<path transform="matrix(.71980676,0,0,.71980676,0,0)" d="M 288 151.38 L 388 151.38 L 388 211.38 L 288 211.38 " fill="#ffffff"/>
<path transform="matrix(.71980676,0,0,.71980676,0,0)" stroke-width="2" stroke-linecap="butt" stroke-miterlimit="10" stroke-linejoin="miter" fill="none" stroke="#000000" d="M 288 151.38 L 388 151.38 L 388 211.38 L 288 211.38 "/>
<path transform="matrix(.71980676,0,0,.71980676,0,0)" stroke-width="2" stroke-linecap="butt" stroke-miterlimit="10" stroke-linejoin="miter" fill="none" stroke="#000000" d="M 288 151.38 L 288 211.38 "/>
</g>
<clipPath id="cp10">
<path transform="matrix(.24,0,0,.24,0,0)" d="M 1034.9622 493.00767 L 1136.9348 493.00767 L 1136.9348 594.9803 L 1034.9622 594.9803 Z " fill-rule="evenodd"/>
</clipPath>
<g clip-path="url(#cp10)">
<path transform="matrix(.50986316,0,0,.50986316,251.45009,121.38101)" d="M 36 18 C 35.999998 19.181895 35.88471 20.352437 35.65413 21.511624 C 35.423555 22.670809 35.08212 23.796368 34.629827 24.888298 C 34.177537 25.980229 33.623079 27.01755 32.96645 28.00026 C 32.309823 28.982972 31.563645 29.89219 30.727919 30.727919 C 29.89219 31.563645 28.982972 32.309823 28.00026 32.96645 C 27.01755 33.623079 25.980229 34.177537 24.888298 34.62983 C 23.796368 35.08212 22.670809 35.423555 21.511624 35.654134 C 20.352437 35.88471 19.181895 35.999998 18 36 C 16.818102 35.999998 15.64756 35.88471 14.488373 35.65413 C 13.3291859 35.423555 12.203627 35.08212 11.111696 34.629827 C 10.019766 34.177537 8.982446 33.623079 7.999735 32.96645 C 7.0170238 32.309823 6.107805 31.563645 5.2720777 30.727919 C 4.4363505 29.89219 3.6901732 28.982972 3.0335465 28.00026 C 2.3769198 27.01755 1.8224605 25.980229 1.3701682 24.888298 C .9178759 23.796368 .5764415 22.670809 .3458649 21.511624 C .11528829 20.352437 0 19.181895 0 18 C 0 16.818102 .11528829 15.64756 .3458649 14.488373 C .5764415 13.3291859 .9178759 12.203627 1.3701682 11.111696 C 1.8224605 10.019766 2.3769198 8.982446 3.0335465 7.999735 C 3.6901732 7.0170238 4.4363505 6.107805 5.2720777 5.2720777 C 6.107805 4.4363505 7.0170238 3.6901732 7.999735 3.0335465 C 8.982446 2.3769198 10.019766 1.8224605 11.111696 1.3701682 C 12.203627 .9178759 13.3291859 .5764415 14.488373 .3458649 C 15.64756 .11528829 16.818102 0 18 0 C 19.181895 0 20.352437 .11528829 21.511624 .3458649 C 22.670809 .5764415 23.796368 .9178759 24.888298 1.3701682 C 25.980229 1.8224605 27.01755 2.3769198 28.00026 3.0335465 C 28.982972 3.6901732 29.89219 4.4363505 30.727919 5.2720777 C 31.563645 6.107805 32.309823 7.0170238 32.96645 7.999735 C 33.623079 8.982446 34.177537 10.019766 34.62983 11.111696 C 35.08212 12.203627 35.423555 13.3291859 35.654134 14.488373 C 35.88471 15.64756 35.999998 16.818102 36 18 Z " fill="#ffffff" fill-opacity=".949"/>
<path transform="matrix(.50986316,0,0,.50986316,251.45009,121.38101)" stroke-width="4" stroke-linecap="butt" stroke-miterlimit="4" stroke-linejoin="miter" fill="none" stroke="#000000" d="M 36 18 C 35.999998 19.181895 35.88471 20.352437 35.65413 21.511624 C 35.423555 22.670809 35.08212 23.796368 34.629827 24.888298 C 34.177537 25.980229 33.623079 27.01755 32.96645 28.00026 C 32.309823 28.982972 31.563645 29.89219 30.727919 30.727919 C 29.89219 31.563645 28.982972 32.309823 28.00026 32.96645 C 27.01755 33.623079 25.980229 34.177537 24.888298 34.62983 C 23.796368 35.08212 22.670809 35.423555 21.511624 35.654134 C 20.352437 35.88471 19.181895 35.999998 18 36 C 16.818102 35.999998 15.64756 35.88471 14.488373 35.65413 C 13.3291859 35.423555 12.203627 35.08212 11.111696 34.629827 C 10.019766 34.177537 8.982446 33.623079 7.999735 32.96645 C 7.0170238 32.309823 6.107805 31.563645 5.2720777 30.727919 C 4.4363505 29.89219 3.6901732 28.982972 3.0335465 28.00026 C 2.3769198 27.01755 1.8224605 25.980229 1.3701682 24.888298 C .9178759 23.796368 .5764415 22.670809 .3458649 21.511624 C .11528829 20.352437 0 19.181895 0 18 C 0 16.818102 .11528829 15.64756 .3458649 14.488373 C .5764415 13.3291859 .9178759 12.203627 1.3701682 11.111696 C 1.8224605 10.019766 2.3769198 8.982446 3.0335465 7.999735 C 3.6901732 7.0170238 4.4363505 6.107805 5.2720777 5.2720777 C 6.107805 4.4363505 7.0170238 3.6901732 7.999735 3.0335465 C 8.982446 2.3769198 10.019766 1.8224605 11.111696 1.3701682 C 12.203627 .9178759 13.3291859 .5764415 14.488373 .3458649 C 15.64756 .11528829 16.818102 0 18 0 C 19.181895 0 20.352437 .11528829 21.511624 .3458649 C 22.670809 .5764415 23.796368 .9178759 24.888298 1.3701682 C 25.980229 1.8224605 27.01755 2.3769198 28.00026 3.0335465 C 28.982972 3.6901732 29.89219 4.4363505 30.727919 5.2720777 C 31.563645 6.107805 32.309823 7.0170238 32.96645 7.999735 C 33.623079 8.982446 34.177537 10.019766 34.62983 11.111696 C 35.08212 12.203627 35.423555 13.3291859 35.654134 14.488373 C 35.88471 15.64756 35.999998 16.818102 36 18 Z "/>
</g>
<clipPath id="cp11">
<path transform="matrix(.24,0,0,.24,0,0)" d="M 0 0 L 1862.5 0 L 1862.5 671.81967 L 0 671.81967 Z " fill-rule="evenodd"/>
</clipPath>
<g clip-path="url(#cp11)">
<path transform="matrix(.71980676,0,0,.71980676,0,0)" d="M 357 196 L 368 196 L 368 210 L 357 210 Z " fill="#ffffff"/>
<g id="Layer-1" data-name="P">
</g>
<text xml:space="preserve" transform="matrix(.71980676 0 0 .71980676 0 0)" font-size="12" font-family="ArialMT"><tspan y="207.38" x="358.07804">E</tspan></text>
<path transform="matrix(.71980676,0,0,.71980676,.35990338,.35990338)" stroke-width="1" stroke-linecap="butt" stroke-miterlimit="10" stroke-linejoin="miter" fill="none" stroke="#000000" d="M 311 181.04 L 341.77 181.32 "/>
<path transform="matrix(.71980676,0,0,.71980676,.35990338,.35990338)" d="M 347.02 181.37 L 339.99 184.81 L 341.77 181.32 L 340.05 177.81 L 347.02 181.37 Z "/>
<path transform="matrix(.71980676,0,0,.71980676,.35990338,.35990338)" stroke-width="1" stroke-linecap="butt" stroke-miterlimit="10" stroke-linejoin="miter" fill="none" stroke="#000000" d="M 347.02 181.37 L 339.99 184.81 L 341.77 181.32 L 340.05 177.81 L 347.02 181.37 Z "/>
<path transform="matrix(.71980676,0,0,.71980676,.35990338,.35990338)" d="M 335.75 181.63 C 335.75 182.1717 335.70036 182.70819 335.60108 183.23947 C 335.5018 183.77077 335.3548 184.28664 335.16007 184.78711 C 334.96534 185.28759 334.7266 185.76302 334.44389 186.21343 C 334.16117 186.66384 333.8399 187.08057 333.48008 187.46363 C 333.12025 187.84667 332.72877 188.18865 332.30567 188.4896 C 331.88255 188.79056 331.4359 189.0447 330.9658 189.25199 C 330.49565 189.45929 330.01103 189.61579 329.51194 189.72147 C 329.01283 189.82717 328.50886 189.88 328 189.88 C 327.4911 189.88 326.9871 189.82717 326.488 189.72147 C 325.9889 189.61579 325.5043 189.45929 325.03419 189.25199 C 324.56404 189.0447 324.1174 188.79056 323.69429 188.48961 C 323.27116 188.18866 322.8797 187.84667 322.5199 187.46363 C 322.16007 187.08057 321.8388 186.66384 321.55607 186.21343 C 321.27336 185.76302 321.0346 185.28759 320.83988 184.78711 C 320.64515 184.28664 320.49818 183.77077 320.3989 183.23947 C 320.29963 182.70819 320.24998 182.1717 320.25 181.63 C 320.24998 181.08829 320.29963 180.55179 320.3989 180.0205 C 320.49818 179.4892 320.64515 178.97332 320.83988 178.47286 C 321.0346 177.97238 321.27336 177.49695 321.55607 177.04653 C 321.8388 176.59613 322.16007 176.1794 322.5199 175.79636 C 322.8797 175.4133 323.27116 175.0713 323.69429 174.77036 C 324.1174 174.4694 324.56404 174.21527 325.03419 174.00798 C 325.5043 173.80069 325.9889 173.6442 326.488 173.53852 C 326.9871 173.43285 327.4911 173.38002 328 173.38 C 328.50886 173.38002 329.01283 173.43286 329.51194 173.53853 C 330.01103 173.6442 330.49565 173.80069 330.9658 174.00798 C 331.4359 174.21527 331.88255 174.4694 332.30567 174.77036 C 332.72877 175.0713 333.12025 175.4133 333.48008 175.79636 C 333.8399 176.1794 334.16117 176.59613 334.44386 177.04654 C 334.7266 177.49695 334.96534 177.97238 335.16007 178.47286 C 335.3548 178.97332 335.5018 179.4892 335.60108 180.0205 C 335.70036 180.55179 335.75 181.08829 335.75 181.63 Z " fill="#009900"/>
<g id="Layer-1" data-name="P">
</g>
<text fill="#ffffff" xml:space="preserve" transform="matrix(.71980676 0 0 .71980676 0 0)" font-size="12" font-family="ArialMT"><tspan y="186" x="324.65626">1</tspan></text>
<g id="Layer-1" data-name="P">
</g>
<text xml:space="preserve" transform="matrix(.71980676 0 0 .71980676 0 0)" font-size="12" font-family="ArialMT"><tspan y="176" x="307.82814 313.82814">sf</tspan></text>
<path transform="matrix(.71980676,0,0,.71980676,.35990338,.35990338)" d="M 276.5 152.13 C 276.49998 152.6717 276.45033 153.20819 276.35105 153.73947 C 276.25178 154.27077 276.10478 154.78664 275.91004 155.28711 C 275.7153 155.78759 275.47657 156.26302 275.19389 156.71343 C 274.91114 157.16384 274.58988 157.58057 274.23005 157.96363 C 273.8702 158.34667 273.47874 158.68866 273.05567 158.98961 C 272.63255 159.29056 272.18589 159.5447 271.71577 159.752 C 271.24565 159.9593 270.76103 160.1158 270.2619 160.22148 C 269.76283 160.32717 269.25886 160.38 268.75 160.38 C 268.24113 160.38 267.73713 160.32717 267.238 160.22148 C 266.7389 160.1158 266.2543 159.9593 265.78419 159.752 C 265.31404 159.5447 264.8674 159.29056 264.4443 158.98961 C 264.02119 158.68866 263.62974 158.34667 263.2699 157.96363 C 262.91007 157.58057 262.58879 157.16384 262.30607 156.71343 C 262.02339 156.26302 261.78465 155.78759 261.5899 155.28711 C 261.39518 154.78664 261.24818 154.27077 261.1489 153.73947 C 261.04963 153.20819 260.99998 152.6717 261 152.13 C 260.99998 151.58829 261.04963 151.05179 261.1489 150.5205 C 261.24818 149.9892 261.39518 149.47332 261.5899 148.97284 C 261.78465 148.47238 262.02339 147.99695 262.30607 147.54654 C 262.58879 147.09615 262.91007 146.67942 263.2699 146.29637 C 263.62974 145.91333 264.02119 145.57132 264.4443 145.27037 C 264.8674 144.96942 265.31404 144.71529 265.78419 144.508 C 266.2543 144.3007 266.7389 144.14421 267.238 144.03852 C 267.73713 143.93285 268.24113 143.88002 268.75 143.88 C 269.25886 143.88002 269.76283 143.93285 270.2619 144.03852 C 270.76103 144.14421 271.24565 144.3007 271.71577 144.508 C 272.18589 144.71529 272.63255 144.96942 273.05567 145.27037 C 273.47874 145.57132 273.8702 145.91333 274.23005 146.29637 C 274.58988 146.67942 274.91114 147.09615 275.19389 147.54654 C 275.47657 147.99695 275.7153 148.47238 275.91004 148.97284 C 276.10478 149.47332 276.25178 149.9892 276.35105 150.5205 C 276.45033 151.05179 276.49998 151.58829 276.5 152.13 Z " fill="#009900"/>
<path transform="matrix(.71980676,0,0,.71980676,.35990338,.35990338)" stroke-width="1" stroke-linecap="butt" stroke-miterlimit="10" stroke-linejoin="miter" fill="none" stroke="#000000" d="M 398.5 186.04 L 398.5 176.04 L 427.5 176.04 L 427.5 165.54 L 446.5 181.04 L 427.5 196.54 L 427.5 186.04 L 398.5 186.04 Z "/>
<path transform="matrix(.71980676,0,0,.71980676,0,0)" d="M 478 151.38 L 458 151.38 L 458 211.38 L 478 211.38 " fill="#ffffff"/>
<path transform="matrix(.71980676,0,0,.71980676,0,0)" stroke-width="2" stroke-linecap="butt" stroke-miterlimit="10" stroke-linejoin="miter" fill="none" stroke="#000000" d="M 478 151.38 L 458 151.38 L 458 211.38 L 478 211.38 "/>
<path transform="matrix(.71980676,0,0,.71980676,0,0)" d="M 478 151.38 L 578 151.38 L 578 211.38 L 478 211.38 " fill="#ffffff"/>
<path transform="matrix(.71980676,0,0,.71980676,0,0)" stroke-width="2" stroke-linecap="butt" stroke-miterlimit="10" stroke-linejoin="miter" fill="none" stroke="#000000" d="M 478 151.38 L 578 151.38 L 578 211.38 L 478 211.38 "/>
<path transform="matrix(.71980676,0,0,.71980676,0,0)" stroke-width="2" stroke-linecap="butt" stroke-miterlimit="10" stroke-linejoin="miter" fill="none" stroke="#000000" d="M 478 151.38 L 478 211.38 "/>
</g>
<clipPath id="cp12">
<path transform="matrix(.24,0,0,.24,0,0)" d="M 1604.8092 493.00767 L 1706.7819 493.00767 L 1706.7819 594.9803 L 1604.8092 594.9803 Z " fill-rule="evenodd"/>
</clipPath>
<g clip-path="url(#cp12)">
<path transform="matrix(.50986316,0,0,.50986316,388.21339,121.38101)" d="M 36 18 C 35.999998 19.181895 35.88471 20.352437 35.65413 21.511624 C 35.423555 22.670809 35.08212 23.796368 34.629827 24.888298 C 34.177537 25.980229 33.623079 27.01755 32.96645 28.00026 C 32.309823 28.982972 31.563645 29.89219 30.727919 30.727919 C 29.89219 31.563645 28.982972 32.309823 28.00026 32.96645 C 27.01755 33.623079 25.980229 34.177537 24.888298 34.62983 C 23.796368 35.08212 22.670809 35.423555 21.511624 35.654134 C 20.352437 35.88471 19.181895 35.999998 18 36 C 16.818102 35.999998 15.64756 35.88471 14.488373 35.65413 C 13.3291859 35.423555 12.203627 35.08212 11.111696 34.629827 C 10.019766 34.177537 8.982446 33.623079 7.999735 32.96645 C 7.0170238 32.309823 6.107805 31.563645 5.2720777 30.727919 C 4.4363505 29.89219 3.6901732 28.982972 3.0335465 28.00026 C 2.3769198 27.01755 1.8224605 25.980229 1.3701682 24.888298 C .9178759 23.796368 .5764415 22.670809 .3458649 21.511624 C .11528829 20.352437 0 19.181895 0 18 C 0 16.818102 .11528829 15.64756 .3458649 14.488373 C .5764415 13.3291859 .9178759 12.203627 1.3701682 11.111696 C 1.8224605 10.019766 2.3769198 8.982446 3.0335465 7.999735 C 3.6901732 7.0170238 4.4363505 6.107805 5.2720777 5.2720777 C 6.107805 4.4363505 7.0170238 3.6901732 7.999735 3.0335465 C 8.982446 2.3769198 10.019766 1.8224605 11.111696 1.3701682 C 12.203627 .9178759 13.3291859 .5764415 14.488373 .3458649 C 15.64756 .11528829 16.818102 0 18 0 C 19.181895 0 20.352437 .11528829 21.511624 .3458649 C 22.670809 .5764415 23.796368 .9178759 24.888298 1.3701682 C 25.980229 1.8224605 27.01755 2.3769198 28.00026 3.0335465 C 28.982972 3.6901732 29.89219 4.4363505 30.727919 5.2720777 C 31.563645 6.107805 32.309823 7.0170238 32.96645 7.999735 C 33.623079 8.982446 34.177537 10.019766 34.62983 11.111696 C 35.08212 12.203627 35.423555 13.3291859 35.654134 14.488373 C 35.88471 15.64756 35.999998 16.818102 36 18 Z " fill="#ffffff" fill-opacity=".949"/>
<path transform="matrix(.50986316,0,0,.50986316,388.21339,121.38101)" stroke-width="4" stroke-linecap="butt" stroke-miterlimit="4" stroke-linejoin="miter" fill="none" stroke="#000000" d="M 36 18 C 35.999998 19.181895 35.88471 20.352437 35.65413 21.511624 C 35.423555 22.670809 35.08212 23.796368 34.629827 24.888298 C 34.177537 25.980229 33.623079 27.01755 32.96645 28.00026 C 32.309823 28.982972 31.563645 29.89219 30.727919 30.727919 C 29.89219 31.563645 28.982972 32.309823 28.00026 32.96645 C 27.01755 33.623079 25.980229 34.177537 24.888298 34.62983 C 23.796368 35.08212 22.670809 35.423555 21.511624 35.654134 C 20.352437 35.88471 19.181895 35.999998 18 36 C 16.818102 35.999998 15.64756 35.88471 14.488373 35.65413 C 13.3291859 35.423555 12.203627 35.08212 11.111696 34.629827 C 10.019766 34.177537 8.982446 33.623079 7.999735 32.96645 C 7.0170238 32.309823 6.107805 31.563645 5.2720777 30.727919 C 4.4363505 29.89219 3.6901732 28.982972 3.0335465 28.00026 C 2.3769198 27.01755 1.8224605 25.980229 1.3701682 24.888298 C .9178759 23.796368 .5764415 22.670809 .3458649 21.511624 C .11528829 20.352437 0 19.181895 0 18 C 0 16.818102 .11528829 15.64756 .3458649 14.488373 C .5764415 13.3291859 .9178759 12.203627 1.3701682 11.111696 C 1.8224605 10.019766 2.3769198 8.982446 3.0335465 7.999735 C 3.6901732 7.0170238 4.4363505 6.107805 5.2720777 5.2720777 C 6.107805 4.4363505 7.0170238 3.6901732 7.999735 3.0335465 C 8.982446 2.3769198 10.019766 1.8224605 11.111696 1.3701682 C 12.203627 .9178759 13.3291859 .5764415 14.488373 .3458649 C 15.64756 .11528829 16.818102 0 18 0 C 19.181895 0 20.352437 .11528829 21.511624 .3458649 C 22.670809 .5764415 23.796368 .9178759 24.888298 1.3701682 C 25.980229 1.8224605 27.01755 2.3769198 28.00026 3.0335465 C 28.982972 3.6901732 29.89219 4.4363505 30.727919 5.2720777 C 31.563645 6.107805 32.309823 7.0170238 32.96645 7.999735 C 33.623079 8.982446 34.177537 10.019766 34.62983 11.111696 C 35.08212 12.203627 35.423555 13.3291859 35.654134 14.488373 C 35.88471 15.64756 35.999998 16.818102 36 18 Z "/>
</g>
<clipPath id="cp13">
<path transform="matrix(.24,0,0,.24,0,0)" d="M 0 0 L 1862.5 0 L 1862.5 671.81967 L 0 671.81967 Z " fill-rule="evenodd"/>
</clipPath>
<g clip-path="url(#cp13)">
<path transform="matrix(.71980676,0,0,.71980676,0,0)" d="M 547 196 L 558 196 L 558 210 L 547 210 Z " fill="#ffffff"/>
<g id="Layer-1" data-name="P">
</g>
<text xml:space="preserve" transform="matrix(.71980676 0 0 .71980676 0 0)" font-size="12" font-family="ArialMT"><tspan y="207.38" x="548.07809">E</tspan></text>
<path transform="matrix(.71980676,0,0,.71980676,.35990338,.35990338)" stroke-width="1" stroke-linecap="butt" stroke-miterlimit="10" stroke-linejoin="miter" fill="none" stroke="#000000" d="M 501 181.04 L 531.77 181.32 "/>
<path transform="matrix(.71980676,0,0,.71980676,.35990338,.35990338)" d="M 537.02 181.37 L 529.99 184.81 L 531.77 181.32 L 530.05 177.81 L 537.02 181.37 Z "/>
<path transform="matrix(.71980676,0,0,.71980676,.35990338,.35990338)" stroke-width="1" stroke-linecap="butt" stroke-miterlimit="10" stroke-linejoin="miter" fill="none" stroke="#000000" d="M 537.02 181.37 L 529.99 184.81 L 531.77 181.32 L 530.05 177.81 L 537.02 181.37 Z "/>
<g id="Layer-1" data-name="P">
</g>
<text xml:space="preserve" transform="matrix(.71980676 0 0 .71980676 0 0)" font-size="12" font-family="ArialMT"><tspan y="176" x="497.82814 503.82814">sf</tspan></text>
<path transform="matrix(.71980676,0,0,.71980676,.35990338,.35990338)" d="M 466.5 152.13 C 466.49998 152.6717 466.4503 153.20819 466.351 153.73947 C 466.25175 154.27077 466.10475 154.78664 465.90998 155.28711 C 465.71525 155.78759 465.47654 156.26302 465.19383 156.71343 C 464.91114 157.16384 464.58988 157.58057 464.23005 157.96363 C 463.8702 158.34667 463.4787 158.68866 463.05558 158.98961 C 462.63246 159.29056 462.18586 159.5447 461.71574 159.752 C 461.2456 159.9593 460.761 160.1158 460.26194 160.22148 C 459.76283 160.32717 459.25886 160.38 458.75 160.38 C 458.2411 160.38 457.7371 160.32717 457.238 160.22148 C 456.7389 160.1158 456.25428 159.9593 455.78413 159.752 C 455.314 159.5447 454.86738 159.29056 454.44429 158.98961 C 454.02116 158.68866 453.6297 158.34667 453.2699 157.96363 C 452.91007 157.58057 452.58879 157.16384 452.30604 156.71343 C 452.02333 156.26302 451.7846 155.78759 451.58988 155.28711 C 451.39515 154.78664 451.24818 154.27077 451.1489 153.73947 C 451.04963 153.20819 450.99998 152.6717 451 152.13 C 450.99998 151.58829 451.0496 151.05179 451.14888 150.5205 C 451.24818 149.9892 451.39518 149.47332 451.5899 148.97284 C 451.7846 148.47238 452.02333 147.99695 452.30607 147.54654 C 452.58879 147.09615 452.91007 146.67942 453.2699 146.29637 C 453.6297 145.91333 454.02116 145.57132 454.44429 145.27037 C 454.8674 144.96942 455.31404 144.71529 455.78419 144.508 C 456.2543 144.3007 456.7389 144.14421 457.238 144.03852 C 457.7371 143.93285 458.2411 143.88002 458.75 143.88 C 459.25886 143.88002 459.76283 143.93285 460.2619 144.03852 C 460.761 144.14421 461.2456 144.3007 461.71574 144.508 C 462.18586 144.71529 462.63249 144.96942 463.0556 145.27037 C 463.47874 145.57132 463.8702 145.91333 464.23005 146.29637 C 464.58988 146.67942 464.91114 147.09615 465.19386 147.54654 C 465.47654 147.99695 465.71528 148.47238 465.91 148.97284 C 466.10475 149.47332 466.25178 149.9892 466.35105 150.5205 C 466.45033 151.05179 466.49998 151.58829 466.5 152.13 Z " fill="#009900"/>
<path transform="matrix(.01007848,0,0,-.0106280189,299.44999,99.62801)" d="M 0 673 C 0 680.3333 2.333333 685.6667 7 689 C 11.666667 692.3333 16 694 20 694 C 28 694 34 689.3333 38 680 C 42 670.6667 56.666666 633 82 567 L 126 451 L 430 451 L 473 566 C 479.66667 584 486.66667 602.6667 494 622 C 501.33335 641.3333 507.33335 656.6667 512 668 C 516.6667 679.3333 519 685 519 685 C 522.3333 691 528.6667 694 538 694 C 550 692.6667 556 686 556 674 C 556 671.3333 512.6667 556.3334 426 329 C 339.3333 101.66666 295 -13 293 -15 C 289.66667 -19.666668 284.66667 -22 278 -22 C 271.33335 -22 266.33335 -19.666668 263 -15 C 261 -12.333333 217 102 131 328 C 45 554 1.3333334 669 0 673 Z M 414 410 C 414 410.66667 368.6667 411 278 411 C 187.33333 411 142 410.66667 142 410 L 278 55 L 414 410 Z "/>
<path transform="matrix(.01007848,0,0,-.0106280189,299.44999,99.62801)" stroke-width="0" stroke-linecap="butt" stroke-miterlimit="4" stroke-linejoin="miter" fill="none" stroke="#000000" stroke-opacity=".1294" d="M 0 673 C 0 680.3333 2.333333 685.6667 7 689 C 11.666667 692.3333 16 694 20 694 C 28 694 34 689.3333 38 680 C 42 670.6667 56.666666 633 82 567 L 126 451 L 430 451 L 473 566 C 479.66667 584 486.66667 602.6667 494 622 C 501.33335 641.3333 507.33335 656.6667 512 668 C 516.6667 679.3333 519 685 519 685 C 522.3333 691 528.6667 694 538 694 C 550 692.6667 556 686 556 674 C 556 671.3333 512.6667 556.3334 426 329 C 339.3333 101.66666 295 -13 293 -15 C 289.66667 -19.666668 284.66667 -22 278 -22 C 271.33335 -22 266.33335 -19.666668 263 -15 C 261 -12.333333 217 102 131 328 C 45 554 1.3333334 669 0 673 Z M 414 410 C 414 410.66667 368.6667 411 278 411 C 187.33333 411 142 410.66667 142 410 L 278 55 L 414 410 Z "/>
<path transform="matrix(.01007848,0,0,-.0106280189,307.5732,99.62801)" d="M 295 316 C 295 342.66667 286 365.66667 268 385 C 250 404.33335 224 414 190 414 C 166 414 145.33333 409.66667 128 401 C 108 388.33335 98 371 98 349 C 97.333339 345.66667 97.333339 341.33335 98 336 C 98.666667 330.66667 104 322.66667 114 312 C 124 301.33335 138.33333 293 157 287 C 169 283.66667 183.66667 280.66667 201 278 C 218.33333 275.33335 233 272.33335 245 269 C 257 265.66667 267.66667 261.33335 277 256 C 288.33335 250.66667 299.33335 244 310 236 C 320.66667 228 331.33335 214.33333 342 195 C 352.66667 175.66667 358.33335 155 359 133 C 359 91.666667 346.33335 57.666669 321 31 C 295.66667 4.333332 254.66667 -9.333333 198 -10 L 190 -10 C 155.33333 -10 123.333339 2 94 26 L 86 19 L 77 10 C 73 6 69 2.3333336 65 -1 L 54 -11 L 46 -11 L 42 -11 C 40 -11 37 -9 33 -5 L 33 74 L 33 132 C 33 146 33.666669 154.33333 35 157 C 36.333333 159.66667 39.666669 161.33333 45 162 L 54 162 C 62 162 67.333339 160.66667 70 158 C 72.666667 155.33333 74.333339 151.33333 75 146 C 75.666667 140.66667 78 131.66667 82 119 C 86 106.333339 92.333339 92.333339 101 77 C 124.333339 43 156.66666 26 198 26 C 262.6667 26 295 52 295 104 C 295 123.333339 289 139 277 151 C 263.66667 167 236 179 194 187 C 152 195 124.333339 202.66667 111 210 C 87 221.33333 68 236.66667 54 256 C 40 275.33335 33 296 33 318 C 33 344 38.666666 366 50 384 C 61.333337 402 75.666667 415.33335 93 424 C 110.333339 432.66667 127 438.66667 143 442 C 159 445.33335 173.66667 447 187 447 L 198 447 C 224.66667 447 248 442 268 432 L 283 424 L 292 431 C 298.66667 437 306 442.66667 314 448 L 322 448 L 326 448 C 328 448 331 446 335 442 L 335 310 L 329 304 L 301 304 C 297 308 295 312 295 316 Z "/>
<path transform="matrix(.01007848,0,0,-.0106280189,307.5732,99.62801)" stroke-width="0" stroke-linecap="butt" stroke-miterlimit="4" stroke-linejoin="miter" fill="none" stroke="#000000" stroke-opacity=".1294" d="M 295 316 C 295 342.66667 286 365.66667 268 385 C 250 404.33335 224 414 190 414 C 166 414 145.33333 409.66667 128 401 C 108 388.33335 98 371 98 349 C 97.333339 345.66667 97.333339 341.33335 98 336 C 98.666667 330.66667 104 322.66667 114 312 C 124 301.33335 138.33333 293 157 287 C 169 283.66667 183.66667 280.66667 201 278 C 218.33333 275.33335 233 272.33335 245 269 C 257 265.66667 267.66667 261.33335 277 256 C 288.33335 250.66667 299.33335 244 310 236 C 320.66667 228 331.33335 214.33333 342 195 C 352.66667 175.66667 358.33335 155 359 133 C 359 91.666667 346.33335 57.666669 321 31 C 295.66667 4.333332 254.66667 -9.333333 198 -10 L 190 -10 C 155.33333 -10 123.333339 2 94 26 L 86 19 L 77 10 C 73 6 69 2.3333336 65 -1 L 54 -11 L 46 -11 L 42 -11 C 40 -11 37 -9 33 -5 L 33 74 L 33 132 C 33 146 33.666669 154.33333 35 157 C 36.333333 159.66667 39.666669 161.33333 45 162 L 54 162 C 62 162 67.333339 160.66667 70 158 C 72.666667 155.33333 74.333339 151.33333 75 146 C 75.666667 140.66667 78 131.66667 82 119 C 86 106.333339 92.333339 92.333339 101 77 C 124.333339 43 156.66666 26 198 26 C 262.6667 26 295 52 295 104 C 295 123.333339 289 139 277 151 C 263.66667 167 236 179 194 187 C 152 195 124.333339 202.66667 111 210 C 87 221.33333 68 236.66667 54 256 C 40 275.33335 33 296 33 318 C 33 344 38.666666 366 50 384 C 61.333337 402 75.666667 415.33335 93 424 C 110.333339 432.66667 127 438.66667 143 442 C 159 445.33335 173.66667 447 187 447 L 198 447 C 224.66667 447 248 442 268 432 L 283 424 L 292 431 C 298.66667 437 306 442.66667 314 448 L 322 448 L 326 448 C 328 448 331 446 335 442 L 335 310 L 329 304 L 301 304 C 297 308 295 312 295 316 Z "/>
<path transform="matrix(.01007848,0,0,-.0106280189,311.54417,99.62801)" d="M 273 0 C 261 2 218.66667 3 146 3 C 77.33333 3 40 2 34 0 L 26 0 L 26 46 L 42 46 C 60.666669 46 77 47 91 49 C 96.333339 51 100.333339 54.666669 103 60 C 103.666667 61.333333 104 116 104 224 L 104 385 L 33 385 L 33 431 L 104 431 L 104 497 L 105 564 L 107 574 C 119.666667 617.3333 141 648.6667 171 668 C 201 687.3333 232.66666 699.3333 266 704 C 266.66667 704 269.66667 704 275 704 C 280.33335 704 285 704.3333 289 705 C 316.33335 703 337 694.3333 351 679 C 365 663.6667 372 646.3333 372 627 C 372 611.6667 367.33335 599.3333 358 590 C 348.66667 580.6667 336.33335 576 321 576 C 305.66667 576 293.33335 580.6667 284 590 C 274.66667 599.3333 270 611.6667 270 627 C 270 640.3333 276 653.6667 288 667 L 284 667 C 281.33335 667.6667 277.66667 668 273 668 C 254.33333 668 237.66667 661 223 647 C 208.33333 633 197 614.6667 189 592 C 185 578.6667 182.66667 547 182 497 L 182 431 L 293 431 L 293 385 L 185 385 L 185 225 C 185 117 185.33333 62.333333 186 61 C 186.66667 59.666669 187.66667 58.333333 189 57 C 190.33333 55.666669 192 54.666669 194 54 C 196 53.333333 197.66667 52.333333 199 51 C 200.33333 49.666669 202.66667 49 206 49 C 209.33333 49 211.66667 48.666669 213 48 C 214.33333 47.333333 217.33333 47 222 47 C 226.66667 47 229.66667 47 231 47 C 232.33333 47 235.66667 46.666669 241 46 C 246.33333 45.333333 249.66667 45.333333 251 46 L 282 46 L 282 0 L 273 0 Z "/>
<path transform="matrix(.01007848,0,0,-.0106280189,311.54417,99.62801)" stroke-width="0" stroke-linecap="butt" stroke-miterlimit="4" stroke-linejoin="miter" fill="none" stroke="#000000" stroke-opacity=".1294" d="M 273 0 C 261 2 218.66667 3 146 3 C 77.33333 3 40 2 34 0 L 26 0 L 26 46 L 42 46 C 60.666669 46 77 47 91 49 C 96.333339 51 100.333339 54.666669 103 60 C 103.666667 61.333333 104 116 104 224 L 104 385 L 33 385 L 33 431 L 104 431 L 104 497 L 105 564 L 107 574 C 119.666667 617.3333 141 648.6667 171 668 C 201 687.3333 232.66666 699.3333 266 704 C 266.66667 704 269.66667 704 275 704 C 280.33335 704 285 704.3333 289 705 C 316.33335 703 337 694.3333 351 679 C 365 663.6667 372 646.3333 372 627 C 372 611.6667 367.33335 599.3333 358 590 C 348.66667 580.6667 336.33335 576 321 576 C 305.66667 576 293.33335 580.6667 284 590 C 274.66667 599.3333 270 611.6667 270 627 C 270 640.3333 276 653.6667 288 667 L 284 667 C 281.33335 667.6667 277.66667 668 273 668 C 254.33333 668 237.66667 661 223 647 C 208.33333 633 197 614.6667 189 592 C 185 578.6667 182.66667 547 182 497 L 182 431 L 293 431 L 293 385 L 185 385 L 185 225 C 185 117 185.33333 62.333333 186 61 C 186.66667 59.666669 187.66667 58.333333 189 57 C 190.33333 55.666669 192 54.666669 194 54 C 196 53.333333 197.66667 52.333333 199 51 C 200.33333 49.666669 202.66667 49 206 49 C 209.33333 49 211.66667 48.666669 213 48 C 214.33333 47.333333 217.33333 47 222 47 C 226.66667 47 229.66667 47 231 47 C 232.33333 47 235.66667 46.666669 241 46 C 246.33333 45.333333 249.66667 45.333333 251 46 L 282 46 L 282 0 L 273 0 Z "/>
<path transform="matrix(.01007848,0,0,-.0106280189,317.42799,99.62801)" d="M 84 250 C 84 331.33335 111.33333 398 166 450 C 220.66667 502 285.3333 531.6667 360 539 C 360.66667 539 366.33335 539 377 539 C 387.66667 539 401.66667 539.3333 419 540 C 436.33335 540.6667 453 540.6667 469 540 L 568 540 C 578 534.6667 583 528 583 520 C 583 514 578.6667 507.66667 570 501 L 466 500 C 392 499.33335 346.33335 497.33335 329 494 C 296.33335 486 267.33335 474 242 458 C 216.66667 442 197 425.66667 183 409 C 169 392.33335 157 374 147 354 C 137 334 131 318 129 306 C 127 294 125.333339 282.66667 124 272 L 124 270 L 568 270 C 578 264.66667 583 258 583 250 C 583 242 578 235.33333 568 230 L 124 230 L 124 228 C 124 214 127.333339 197 134 177 C 140.66667 157 151.66667 135.33333 167 112 C 182.33333 88.666667 203.66667 67.333339 231 48 C 258.33335 28.666666 290.66667 15 328 7 C 346 3 392 .6666667 466 0 L 570 0 C 578.6667 -6.666667 583 -13.333333 583 -20 C 583 -28 578 -34.666669 568 -40 L 471 -40 C 466.33335 -40 458 -40 446 -40 C 434 -40 424.33335 -40.333333 417 -41 C 313.66667 -41 232 -12.333336 172 45 C 113.33333 99.66667 84 168 84 250 Z "/>
<path transform="matrix(.01007848,0,0,-.0106280189,317.42799,99.62801)" stroke-width="0" stroke-linecap="butt" stroke-miterlimit="4" stroke-linejoin="miter" fill="none" stroke="#000000" stroke-opacity=".1294" d="M 84 250 C 84 331.33335 111.33333 398 166 450 C 220.66667 502 285.3333 531.6667 360 539 C 360.66667 539 366.33335 539 377 539 C 387.66667 539 401.66667 539.3333 419 540 C 436.33335 540.6667 453 540.6667 469 540 L 568 540 C 578 534.6667 583 528 583 520 C 583 514 578.6667 507.66667 570 501 L 466 500 C 392 499.33335 346.33335 497.33335 329 494 C 296.33335 486 267.33335 474 242 458 C 216.66667 442 197 425.66667 183 409 C 169 392.33335 157 374 147 354 C 137 334 131 318 129 306 C 127 294 125.333339 282.66667 124 272 L 124 270 L 568 270 C 578 264.66667 583 258 583 250 C 583 242 578 235.33333 568 230 L 124 230 L 124 228 C 124 214 127.333339 197 134 177 C 140.66667 157 151.66667 135.33333 167 112 C 182.33333 88.666667 203.66667 67.333339 231 48 C 258.33335 28.666666 290.66667 15 328 7 C 346 3 392 .6666667 466 0 L 570 0 C 578.6667 -6.666667 583 -13.333333 583 -20 C 583 -28 578 -34.666669 568 -40 L 471 -40 C 466.33335 -40 458 -40 446 -40 C 434 -40 424.33335 -40.333333 417 -41 C 313.66667 -41 232 -12.333336 172 45 C 113.33333 99.66667 84 168 84 250 Z "/>
<path transform="matrix(.01007848,0,0,-.0106280189,326.95014,99.62801)" d="M 128 619 C 123.333339 623.6667 119.666667 626.6667 117 628 C 114.333339 629.3333 109 630.3333 101 631 C 93 631.6667 78.66667 632.6667 58 634 L 25 634 L 25 680 L 597 680 L 597 676 C 598.3333 672 603 633.3333 611 560 C 619 486.66667 623.6667 448 625 444 L 625 440 L 585 440 L 585 444 C 584.3333 446 583.3333 453 582 465 C 579.3333 488.33335 575.3333 508.66667 570 526 C 564.6667 543.3333 559 558.3333 553 571 C 547 583.6667 538.6667 593.6667 528 601 C 517.3333 608.3333 507.33335 614.3333 498 619 C 488.66667 623.6667 475 627 457 629 C 439 631 423.66667 632.3333 411 633 C 398.33335 633.6667 379 634 353 634 C 295 634 261 633.6667 251 633 C 241 632.3333 235 628.6667 233 622 C 233 622 233 621.6667 233 621 C 232.33333 619.6667 232 578.3333 232 497 L 232 376 L 286 376 C 334.66667 377.33335 365 380.33335 377 385 C 401 395.66667 414 423.66667 416 469 C 416 470.33335 416 471.66667 416 473 L 416 493 L 456 493 L 456 213 L 416 213 L 416 233 C 415.33335 256.33335 412.66667 274.66667 408 288 C 403.33335 301.33335 395 311 383 317 C 371 323 359.66667 326.66667 349 328 C 338.33335 329.33335 321 330 297 330 C 292.33335 330 288.66667 330 286 330 L 232 330 L 232 196 L 232 114 C 232 76 233.66667 55.333333 237 52 C 241 48.666669 258.33335 47 289 47 L 340 47 L 391 47 C 415.66667 47 436 48 452 50 C 468 52 485.66667 56 505 62 C 524.3333 68 540 78 552 92 C 564 106 574.6667 124 584 146 C 590.6667 163.33333 595.6667 181.33333 599 200 C 602.3333 218.66667 605 234.33333 607 247 C 609 259.66667 610.6667 267.33335 612 270 L 612 273 L 652 273 L 652 270 C 651.3333 268 644.6667 223.66667 632 137 C 619.3333 50.33333 612 5.666667 610 3 L 610 0 L 25 0 L 25 46 L 58 46 C 86 46.666669 103 47.666669 109 49 C 115 50.333333 121.333339 54.333333 128 61 L 128 619 Z "/>
<path transform="matrix(.01007848,0,0,-.0106280189,326.95014,99.62801)" stroke-width="0" stroke-linecap="butt" stroke-miterlimit="4" stroke-linejoin="miter" fill="none" stroke="#000000" stroke-opacity=".1294" d="M 128 619 C 123.333339 623.6667 119.666667 626.6667 117 628 C 114.333339 629.3333 109 630.3333 101 631 C 93 631.6667 78.66667 632.6667 58 634 L 25 634 L 25 680 L 597 680 L 597 676 C 598.3333 672 603 633.3333 611 560 C 619 486.66667 623.6667 448 625 444 L 625 440 L 585 440 L 585 444 C 584.3333 446 583.3333 453 582 465 C 579.3333 488.33335 575.3333 508.66667 570 526 C 564.6667 543.3333 559 558.3333 553 571 C 547 583.6667 538.6667 593.6667 528 601 C 517.3333 608.3333 507.33335 614.3333 498 619 C 488.66667 623.6667 475 627 457 629 C 439 631 423.66667 632.3333 411 633 C 398.33335 633.6667 379 634 353 634 C 295 634 261 633.6667 251 633 C 241 632.3333 235 628.6667 233 622 C 233 622 233 621.6667 233 621 C 232.33333 619.6667 232 578.3333 232 497 L 232 376 L 286 376 C 334.66667 377.33335 365 380.33335 377 385 C 401 395.66667 414 423.66667 416 469 C 416 470.33335 416 471.66667 416 473 L 416 493 L 456 493 L 456 213 L 416 213 L 416 233 C 415.33335 256.33335 412.66667 274.66667 408 288 C 403.33335 301.33335 395 311 383 317 C 371 323 359.66667 326.66667 349 328 C 338.33335 329.33335 321 330 297 330 C 292.33335 330 288.66667 330 286 330 L 232 330 L 232 196 L 232 114 C 232 76 233.66667 55.333333 237 52 C 241 48.666669 258.33335 47 289 47 L 340 47 L 391 47 C 415.66667 47 436 48 452 50 C 468 52 485.66667 56 505 62 C 524.3333 68 540 78 552 92 C 564 106 574.6667 124 584 146 C 590.6667 163.33333 595.6667 181.33333 599 200 C 602.3333 218.66667 605 234.33333 607 247 C 609 259.66667 610.6667 267.33335 612 270 L 612 273 L 652 273 L 652 270 C 651.3333 268 644.6667 223.66667 632 137 C 619.3333 50.33333 612 5.666667 610 3 L 610 0 L 25 0 L 25 46 L 58 46 C 86 46.666669 103 47.666669 109 49 C 115 50.333333 121.333339 54.333333 128 61 L 128 619 Z "/>
<path transform="matrix(.01007848,0,0,-.0106280189,333.81355,99.62801)" d="M 78 60 C 78 76 83.666667 90 95 102 C 106.333339 114 120.666667 120 138 120 C 154 120 168 114.666667 180 104 C 192 93.333339 198.33333 79 199 61 C 199 44.333333 193.33333 30 182 18 C 170.66667 6 156.33333 0 139 0 C 121.666667 0 107.333339 5.666666 96 17 C 84.666667 28.333334 78.666667 42.666666 78 60 Z "/>
<path transform="matrix(.01007848,0,0,-.0106280189,333.81355,99.62801)" stroke-width="0" stroke-linecap="butt" stroke-miterlimit="4" stroke-linejoin="miter" fill="none" stroke="#000000" stroke-opacity=".1294" d="M 78 60 C 78 76 83.666667 90 95 102 C 106.333339 114 120.666667 120 138 120 C 154 120 168 114.666667 180 104 C 192 93.333339 198.33333 79 199 61 C 199 44.333333 193.33333 30 182 18 C 170.66667 6 156.33333 0 139 0 C 121.666667 0 107.333339 5.666666 96 17 C 84.666667 28.333334 78.666667 42.666666 78 60 Z "/>
<path transform="matrix(.01007848,0,0,-.0106280189,336.6154,99.62801)" d="M 69 609 C 69 627.6667 75 642.3333 87 653 C 99 663.6667 113.666667 669 131 669 C 146.33333 667.6667 159.66667 662 171 652 C 182.33333 642 188 627.6667 188 609 C 188 589 182.33333 574 171 564 C 159.66667 554 145.66667 549 129 549 C 112.33333 549 98.333339 554 87 564 C 75.666667 574 69.666667 589 69 609 Z M 247 0 C 237 2 202.33335 3 143 3 C 135.66667 3 123.333339 3 106 3 C 88.666667 3 72 2.3333336 56 1 L 34 0 L 26 0 L 26 46 L 42 46 C 60.666669 46 77 47 91 49 C 97 51.666669 100.666667 55.333333 102 60 C 103.333339 64.666667 104 78.666667 104 102 L 104 205 L 104 293 C 104 327.66667 103.333339 349.66667 102 359 C 100.666667 368.33335 96 374.66667 88 378 C 78.666667 382.66667 63 385 41 385 L 30 385 L 30 408 C 30 423.33335 30.666666 431 32 431 L 42 432 C 48.666669 432.66667 58 433.33335 70 434 C 82 434.66667 94 435.33335 106 436 C 117.333339 436.66667 129.33333 437.33335 142 438 C 154.66667 438.66667 164.33333 439.66667 171 441 C 177.66667 442.33335 181.33333 442.66667 182 442 L 185 442 L 185 62 C 188.33333 55.333333 192.33333 51.333333 197 50 C 201.66667 48.666669 213.33333 47.333333 232 46 L 255 46 L 255 0 L 247 0 Z "/>
<path transform="matrix(.01007848,0,0,-.0106280189,336.6154,99.62801)" stroke-width="0" stroke-linecap="butt" stroke-miterlimit="4" stroke-linejoin="miter" fill="none" stroke="#000000" stroke-opacity=".1294" d="M 69 609 C 69 627.6667 75 642.3333 87 653 C 99 663.6667 113.666667 669 131 669 C 146.33333 667.6667 159.66667 662 171 652 C 182.33333 642 188 627.6667 188 609 C 188 589 182.33333 574 171 564 C 159.66667 554 145.66667 549 129 549 C 112.33333 549 98.333339 554 87 564 C 75.666667 574 69.666667 589 69 609 Z M 247 0 C 237 2 202.33335 3 143 3 C 135.66667 3 123.333339 3 106 3 C 88.666667 3 72 2.3333336 56 1 L 34 0 L 26 0 L 26 46 L 42 46 C 60.666669 46 77 47 91 49 C 97 51.666669 100.666667 55.333333 102 60 C 103.333339 64.666667 104 78.666667 104 102 L 104 205 L 104 293 C 104 327.66667 103.333339 349.66667 102 359 C 100.666667 368.33335 96 374.66667 88 378 C 78.666667 382.66667 63 385 41 385 L 30 385 L 30 408 C 30 423.33335 30.666666 431 32 431 L 42 432 C 48.666669 432.66667 58 433.33335 70 434 C 82 434.66667 94 435.33335 106 436 C 117.333339 436.66667 129.33333 437.33335 142 438 C 154.66667 438.66667 164.33333 439.66667 171 441 C 177.66667 442.33335 181.33333 442.66667 182 442 L 185 442 L 185 62 C 188.33333 55.333333 192.33333 51.333333 197 50 C 201.66667 48.666669 213.33333 47.333333 232 46 L 255 46 L 255 0 L 247 0 Z "/>
<path transform="matrix(.01007848,0,0,-.0106280189,339.4172,99.62801)" d="M 41 46 L 55 46 C 81 46 96.666667 50.666666 102 60 L 102 68 C 102 74 102 81.666667 102 91 C 102 100.333339 102 110.666667 102 122 C 102 133.33333 102.333339 146.33333 103 161 C 103.666667 175.66667 103.666667 189.66667 103 203 C 103 223.66667 103 245.66667 103 269 C 103 292.33335 102.666667 312 102 328 L 102 351 C 100 363.66667 95.333339 372 88 376 C 80.666667 380 65.66667 383 43 385 L 25 385 L 25 408 C 25 423.33335 25.666666 431 27 431 L 37 432 C 43.666669 432.66667 53 433.33335 65 434 C 77 434.66667 89.333339 435.33335 102 436 C 113.333339 436.66667 125.333339 437.33335 138 438 C 150.66667 438.66667 160.33333 439.66667 167 441 C 173.66667 442.33335 177.33333 442.66667 178 442 L 181 442 L 181 402 C 181 376.66667 181.33333 364 182 364 C 182.66667 364 184.33333 365.66667 187 369 C 189.66667 372.33335 193.66667 377.33335 199 384 C 204.33333 390.66667 210.66667 396.66667 218 402 C 225.33333 407.33335 235 413.66667 247 421 C 259 428.33335 271.66667 433.66667 285 437 C 298.33335 440.33335 315.33335 442 336 442 C 412 439.33335 454.33335 401.6667 463 329 C 463.66667 324.33335 464 278 464 190 L 464 104 C 464 78.666667 464.66667 63.666669 466 59 C 467.33335 54.333333 471 51 477 49 C 491 47 507.33335 46 526 46 L 542 46 L 542 0 L 534 0 L 510 1 C 494.66667 1.6666668 478 2 460 2 C 442 2 429.33335 2.3333333 422 3 C 353.3333 3 316 2 310 0 L 302 0 L 302 46 L 318 46 C 358.66667 46 379 51.333333 379 62 C 379.66667 63.333333 380 109.33333 380 200 C 379.33335 290 378.66667 337.66667 378 343 C 374 361.66667 367.33335 375.66667 358 385 C 348.66667 394.33335 340.66667 400 334 402 C 327.33335 404 318.66667 404.66667 308 404 C 278 404 251.66667 392.66667 229 370 C 211 352 199.66667 333.66667 195 315 C 190.33333 296.33335 187.66667 268.66667 187 232 L 187 168 L 187 108 C 187 88 187.33333 74.666667 188 68 C 188.66667 61.333333 189.66667 57 191 55 C 192.33333 53 195.33333 51 200 49 C 214 47 230.33333 46 249 46 L 265 46 L 265 0 L 257 0 L 234 1 C 218 1.6666668 201 2 183 2 C 165 2 152.33333 2.3333333 145 3 C 76.33333 3 39 2 33 0 L 25 0 L 25 46 L 41 46 Z "/>
<path transform="matrix(.01007848,0,0,-.0106280189,339.4172,99.62801)" stroke-width="0" stroke-linecap="butt" stroke-miterlimit="4" stroke-linejoin="miter" fill="none" stroke="#000000" stroke-opacity=".1294" d="M 41 46 L 55 46 C 81 46 96.666667 50.666666 102 60 L 102 68 C 102 74 102 81.666667 102 91 C 102 100.333339 102 110.666667 102 122 C 102 133.33333 102.333339 146.33333 103 161 C 103.666667 175.66667 103.666667 189.66667 103 203 C 103 223.66667 103 245.66667 103 269 C 103 292.33335 102.666667 312 102 328 L 102 351 C 100 363.66667 95.333339 372 88 376 C 80.666667 380 65.66667 383 43 385 L 25 385 L 25 408 C 25 423.33335 25.666666 431 27 431 L 37 432 C 43.666669 432.66667 53 433.33335 65 434 C 77 434.66667 89.333339 435.33335 102 436 C 113.333339 436.66667 125.333339 437.33335 138 438 C 150.66667 438.66667 160.33333 439.66667 167 441 C 173.66667 442.33335 177.33333 442.66667 178 442 L 181 442 L 181 402 C 181 376.66667 181.33333 364 182 364 C 182.66667 364 184.33333 365.66667 187 369 C 189.66667 372.33335 193.66667 377.33335 199 384 C 204.33333 390.66667 210.66667 396.66667 218 402 C 225.33333 407.33335 235 413.66667 247 421 C 259 428.33335 271.66667 433.66667 285 437 C 298.33335 440.33335 315.33335 442 336 442 C 412 439.33335 454.33335 401.6667 463 329 C 463.66667 324.33335 464 278 464 190 L 464 104 C 464 78.666667 464.66667 63.666669 466 59 C 467.33335 54.333333 471 51 477 49 C 491 47 507.33335 46 526 46 L 542 46 L 542 0 L 534 0 L 510 1 C 494.66667 1.6666668 478 2 460 2 C 442 2 429.33335 2.3333333 422 3 C 353.3333 3 316 2 310 0 L 302 0 L 302 46 L 318 46 C 358.66667 46 379 51.333333 379 62 C 379.66667 63.333333 380 109.33333 380 200 C 379.33335 290 378.66667 337.66667 378 343 C 374 361.66667 367.33335 375.66667 358 385 C 348.66667 394.33335 340.66667 400 334 402 C 327.33335 404 318.66667 404.66667 308 404 C 278 404 251.66667 392.66667 229 370 C 211 352 199.66667 333.66667 195 315 C 190.33333 296.33335 187.66667 268.66667 187 232 L 187 168 L 187 108 C 187 88 187.33333 74.666667 188 68 C 188.66667 61.333333 189.66667 57 191 55 C 192.33333 53 195.33333 51 200 49 C 214 47 230.33333 46 249 46 L 265 46 L 265 0 L 257 0 L 234 1 C 218 1.6666668 201 2 183 2 C 165 2 152.33333 2.3333333 145 3 C 76.33333 3 39 2 33 0 L 25 0 L 25 46 L 41 46 Z "/>
<path transform="matrix(.01007848,0,0,-.0106280189,345.0208,99.62801)" d="M 370 305 C 370 305 363 305 349 305 C 335 305 323 310 313 320 C 303 330 297.66667 342.66667 297 358 C 297 373.33335 302 386 312 396 C 315.33335 399.33335 317 401.33335 317 402 C 317 402.66667 313.66667 403.33335 307 404 C 289.66667 406.66667 273.33335 408 258 408 C 225.33333 408 198.66667 397.33335 178 376 C 146.66667 344.66667 131 292.33335 131 219 C 131 164.33333 141.33333 121.333339 162 90 C 189.33333 49.333333 226 29 272 29 C 299.33335 29 321.33335 37.666666 338 55 C 354.66667 72.333339 366.66667 93 374 117 C 375.33335 122.333339 377 125.666667 379 127 C 381 128.33333 386.33335 129 395 129 L 409 129 C 413 125 415 122 415 120 C 415 117.333339 413.66667 112 411 104 C 408.33335 96 403 85 395 71 C 387 57 377.33335 44.333337 366 33 C 354.66667 21.666666 338.66667 11.333334 318 2 C 297.33335 -7.333334 274.33335 -11.666667 249 -11 C 191.66666 -11 141.66667 10.333332 99 53 C 56.333333 95.66667 34.666669 149.33333 34 214 C 34 283.33335 55.666666 339.66667 99 383 C 142.33335 426.33335 192.66666 448 250 448 C 307.33335 448 347.33335 439 370 421 C 392.66667 403 404 381.66667 404 357 C 404 341.66667 398.33335 329.33335 387 320 L 370 305 Z "/>
<path transform="matrix(.01007848,0,0,-.0106280189,345.0208,99.62801)" stroke-width="0" stroke-linecap="butt" stroke-miterlimit="4" stroke-linejoin="miter" fill="none" stroke="#000000" stroke-opacity=".1294" d="M 370 305 C 370 305 363 305 349 305 C 335 305 323 310 313 320 C 303 330 297.66667 342.66667 297 358 C 297 373.33335 302 386 312 396 C 315.33335 399.33335 317 401.33335 317 402 C 317 402.66667 313.66667 403.33335 307 404 C 289.66667 406.66667 273.33335 408 258 408 C 225.33333 408 198.66667 397.33335 178 376 C 146.66667 344.66667 131 292.33335 131 219 C 131 164.33333 141.33333 121.333339 162 90 C 189.33333 49.333333 226 29 272 29 C 299.33335 29 321.33335 37.666666 338 55 C 354.66667 72.333339 366.66667 93 374 117 C 375.33335 122.333339 377 125.666667 379 127 C 381 128.33333 386.33335 129 395 129 L 409 129 C 413 125 415 122 415 120 C 415 117.333339 413.66667 112 411 104 C 408.33335 96 403 85 395 71 C 387 57 377.33335 44.333337 366 33 C 354.66667 21.666666 338.66667 11.333334 318 2 C 297.33335 -7.333334 274.33335 -11.666667 249 -11 C 191.66666 -11 141.66667 10.333332 99 53 C 56.333333 95.66667 34.666669 149.33333 34 214 C 34 283.33335 55.666666 339.66667 99 383 C 142.33335 426.33335 192.66666 448 250 448 C 307.33335 448 347.33335 439 370 421 C 392.66667 403 404 381.66667 404 357 C 404 341.66667 398.33335 329.33335 387 320 L 370 305 Z "/>
<path transform="matrix(.01007848,0,0,-.0106280189,349.4957,99.62801)" d="M 55 507 C 55 562.3333 74 609 112 647 C 150 685 193.66666 704 243 704 L 257 704 C 313.66667 704 363 683 405 641 L 426 672 C 429.33335 676.6667 432.66667 681.6667 436 687 C 439.33335 692.3333 442.66667 696.6667 446 700 L 449 704 C 449.66667 704 451 704 453 704 C 455 704 457 704.3333 459 705 L 463 705 C 465 705 468 703 472 699 L 472 462 L 466 456 L 448 456 C 440.66667 456 436.33335 457 435 459 C 433.66667 461 432 467.66667 430 479 C 418.66667 563 385 618.6667 329 646 C 304.33335 656.6667 279.33335 662 254 662 C 218.66666 662 190 650 168 626 C 146 602 135 574 135 542 C 135 519.3333 140.66667 498.66667 152 480 C 163.33333 461.33335 179.33333 446.33335 200 435 C 206.66667 432.33335 235.33333 424.66667 286 412 C 336.66667 399.33335 364.66667 391.66667 370 389 C 408 374.33335 439 349.33335 463 314 C 487 278.66667 499.33335 237.66667 500 191 C 500 137 482.66667 88.333339 448 45 C 413.33335 1.6666641 364.33335 -20.333334 301 -21 C 263.66667 -21 230.33333 -15.333334 201 -4 C 171.66667 7.333334 151.33333 17.666666 140 27 L 122 41 C 119.333339 37.666669 114.333339 31 107 21 C 99.666667 11 93 1.666667 87 -7 C 81 -15.666667 78 -20.333334 78 -21 C 76.666667 -21.666666 73.333339 -22 68 -22 L 64 -22 C 62 -22 59 -20 55 -16 L 55 101 C 55 180.33335 55.333333 220.66667 56 222 C 57.333333 225.33333 64 227 76 227 L 89 227 C 93 223 95 218.66667 95 214 C 95 192.66667 98.333339 171.66667 105 151 C 111.666667 130.33333 123 110 139 90 C 155 70 177 54 205 42 C 233 30 266.33335 24 305 24 C 336.33335 24 363.33335 36.666666 386 62 C 408.66667 87.333339 420 118.33333 420 155 C 420 183.66667 412.66667 209.66667 398 233 C 383.33335 256.33335 364 272.33335 340 281 C 302.66667 290.33335 278 296.66667 266 300 C 262.66667 300.66667 253.66667 302.66667 239 306 C 224.33333 309.33335 213.33333 312 206 314 C 198.66667 316 188 319.66667 174 325 C 160 330.33335 149 336.33335 141 343 C 133 349.66667 123.333339 357.66667 112 367 C 100.666667 376.33335 91.666667 388 85 402 C 65 434.66667 55 469.66667 55 507 Z "/>
<path transform="matrix(.01007848,0,0,-.0106280189,349.4957,99.62801)" stroke-width="0" stroke-linecap="butt" stroke-miterlimit="4" stroke-linejoin="miter" fill="none" stroke="#000000" stroke-opacity=".1294" d="M 55 507 C 55 562.3333 74 609 112 647 C 150 685 193.66666 704 243 704 L 257 704 C 313.66667 704 363 683 405 641 L 426 672 C 429.33335 676.6667 432.66667 681.6667 436 687 C 439.33335 692.3333 442.66667 696.6667 446 700 L 449 704 C 449.66667 704 451 704 453 704 C 455 704 457 704.3333 459 705 L 463 705 C 465 705 468 703 472 699 L 472 462 L 466 456 L 448 456 C 440.66667 456 436.33335 457 435 459 C 433.66667 461 432 467.66667 430 479 C 418.66667 563 385 618.6667 329 646 C 304.33335 656.6667 279.33335 662 254 662 C 218.66666 662 190 650 168 626 C 146 602 135 574 135 542 C 135 519.3333 140.66667 498.66667 152 480 C 163.33333 461.33335 179.33333 446.33335 200 435 C 206.66667 432.33335 235.33333 424.66667 286 412 C 336.66667 399.33335 364.66667 391.66667 370 389 C 408 374.33335 439 349.33335 463 314 C 487 278.66667 499.33335 237.66667 500 191 C 500 137 482.66667 88.333339 448 45 C 413.33335 1.6666641 364.33335 -20.333334 301 -21 C 263.66667 -21 230.33333 -15.333334 201 -4 C 171.66667 7.333334 151.33333 17.666666 140 27 L 122 41 C 119.333339 37.666669 114.333339 31 107 21 C 99.666667 11 93 1.666667 87 -7 C 81 -15.666667 78 -20.333334 78 -21 C 76.666667 -21.666666 73.333339 -22 68 -22 L 64 -22 C 62 -22 59 -20 55 -16 L 55 101 C 55 180.33335 55.333333 220.66667 56 222 C 57.333333 225.33333 64 227 76 227 L 89 227 C 93 223 95 218.66667 95 214 C 95 192.66667 98.333339 171.66667 105 151 C 111.666667 130.33333 123 110 139 90 C 155 70 177 54 205 42 C 233 30 266.33335 24 305 24 C 336.33335 24 363.33335 36.666666 386 62 C 408.66667 87.333339 420 118.33333 420 155 C 420 183.66667 412.66667 209.66667 398 233 C 383.33335 256.33335 364 272.33335 340 281 C 302.66667 290.33335 278 296.66667 266 300 C 262.66667 300.66667 253.66667 302.66667 239 306 C 224.33333 309.33335 213.33333 312 206 314 C 198.66667 316 188 319.66667 174 325 C 160 330.33335 149 336.33335 141 343 C 133 349.66667 123.333339 357.66667 112 367 C 100.666667 376.33335 91.666667 388 85 402 C 65 434.66667 55 469.66667 55 507 Z "/>
<path transform="matrix(.01007848,0,0,-.0106280189,355.0993,99.62801)" d="M 128 619 C 123.333339 623.6667 119.666667 626.6667 117 628 C 114.333339 629.3333 109 630.3333 101 631 C 93 631.6667 78.66667 632.6667 58 634 L 25 634 L 25 680 L 582 680 L 582 676 C 583.3333 672 588 633.3333 596 560 C 604 486.66667 608.6667 448 610 444 L 610 440 L 570 440 L 570 444 C 565.3333 476.66667 562.3333 495.66667 561 501 C 557 525.6667 551 546.3333 543 563 C 535 579.6667 526 592.3333 516 601 C 506 609.6667 493 616.6667 477 622 C 461 627.3333 445.66667 630.3333 431 631 C 416.33335 631.6667 397.33335 632.3333 374 633 L 334 633 L 286 633 C 263.33335 633 249.33333 632.3333 244 631 C 238.66667 629.6667 235 626.3333 233 621 C 232.33333 619.6667 232 576 232 490 L 232 363 L 284 363 C 286 363 292.33335 363 303 363 C 313.66667 363 321.66667 363.33335 327 364 C 332.33335 364.66667 339.66667 365.66667 349 367 C 358.33335 368.33335 366 370.33335 372 373 C 378 375.66667 383.66667 379.66667 389 385 C 401 397 408 421.66667 410 459 L 410 480 L 450 480 L 450 200 L 410 200 L 410 221 C 408 257.66667 401 282.66667 389 296 C 383.66667 300.66667 377.66667 304.33335 371 307 C 364.33335 309.66667 356.66667 311.66667 348 313 C 339.33335 314.33335 332.33335 315.33335 327 316 C 321.66667 316.66667 313.66667 317 303 317 C 292.33335 317 286 317 284 317 L 232 317 L 232 189 L 233 61 C 237.66667 56.333333 241.66667 53.333333 245 52 C 248.33333 50.666669 256.66667 49.333333 270 48 C 283.33335 46.666669 304.33335 46 333 46 L 360 46 L 360 0 L 348 0 C 332 2 276.6667 3 182 3 C 94.666667 3 46 2 36 0 L 25 0 L 25 46 L 58 46 C 86 46.666669 103 47.666669 109 49 C 115 50.333333 121.333339 54.333333 128 61 L 128 619 Z "/>
<path transform="matrix(.01007848,0,0,-.0106280189,355.0993,99.62801)" stroke-width="0" stroke-linecap="butt" stroke-miterlimit="4" stroke-linejoin="miter" fill="none" stroke="#000000" stroke-opacity=".1294" d="M 128 619 C 123.333339 623.6667 119.666667 626.6667 117 628 C 114.333339 629.3333 109 630.3333 101 631 C 93 631.6667 78.66667 632.6667 58 634 L 25 634 L 25 680 L 582 680 L 582 676 C 583.3333 672 588 633.3333 596 560 C 604 486.66667 608.6667 448 610 444 L 610 440 L 570 440 L 570 444 C 565.3333 476.66667 562.3333 495.66667 561 501 C 557 525.6667 551 546.3333 543 563 C 535 579.6667 526 592.3333 516 601 C 506 609.6667 493 616.6667 477 622 C 461 627.3333 445.66667 630.3333 431 631 C 416.33335 631.6667 397.33335 632.3333 374 633 L 334 633 L 286 633 C 263.33335 633 249.33333 632.3333 244 631 C 238.66667 629.6667 235 626.3333 233 621 C 232.33333 619.6667 232 576 232 490 L 232 363 L 284 363 C 286 363 292.33335 363 303 363 C 313.66667 363 321.66667 363.33335 327 364 C 332.33335 364.66667 339.66667 365.66667 349 367 C 358.33335 368.33335 366 370.33335 372 373 C 378 375.66667 383.66667 379.66667 389 385 C 401 397 408 421.66667 410 459 L 410 480 L 450 480 L 450 200 L 410 200 L 410 221 C 408 257.66667 401 282.66667 389 296 C 383.66667 300.66667 377.66667 304.33335 371 307 C 364.33335 309.66667 356.66667 311.66667 348 313 C 339.33335 314.33335 332.33335 315.33335 327 316 C 321.66667 316.66667 313.66667 317 303 317 C 292.33335 317 286 317 284 317 L 232 317 L 232 189 L 233 61 C 237.66667 56.333333 241.66667 53.333333 245 52 C 248.33333 50.666669 256.66667 49.333333 270 48 C 283.33335 46.666669 304.33335 46 333 46 L 360 46 L 360 0 L 348 0 C 332 2 276.6667 3 182 3 C 94.666667 3 46 2 36 0 L 25 0 L 25 46 L 58 46 C 86 46.666669 103 47.666669 109 49 C 115 50.333333 121.333339 54.333333 128 61 L 128 619 Z "/>
<path transform="matrix(.01007848,0,0,-.0106280189,361.68055,99.62801)" d="M 295 316 C 295 342.66667 286 365.66667 268 385 C 250 404.33335 224 414 190 414 C 166 414 145.33333 409.66667 128 401 C 108 388.33335 98 371 98 349 C 97.333339 345.66667 97.333339 341.33335 98 336 C 98.666667 330.66667 104 322.66667 114 312 C 124 301.33335 138.33333 293 157 287 C 169 283.66667 183.66667 280.66667 201 278 C 218.33333 275.33335 233 272.33335 245 269 C 257 265.66667 267.66667 261.33335 277 256 C 288.33335 250.66667 299.33335 244 310 236 C 320.66667 228 331.33335 214.33333 342 195 C 352.66667 175.66667 358.33335 155 359 133 C 359 91.666667 346.33335 57.666669 321 31 C 295.66667 4.333332 254.66667 -9.333333 198 -10 L 190 -10 C 155.33333 -10 123.333339 2 94 26 L 86 19 L 77 10 C 73 6 69 2.3333336 65 -1 L 54 -11 L 46 -11 L 42 -11 C 40 -11 37 -9 33 -5 L 33 74 L 33 132 C 33 146 33.666669 154.33333 35 157 C 36.333333 159.66667 39.666669 161.33333 45 162 L 54 162 C 62 162 67.333339 160.66667 70 158 C 72.666667 155.33333 74.333339 151.33333 75 146 C 75.666667 140.66667 78 131.66667 82 119 C 86 106.333339 92.333339 92.333339 101 77 C 124.333339 43 156.66666 26 198 26 C 262.6667 26 295 52 295 104 C 295 123.333339 289 139 277 151 C 263.66667 167 236 179 194 187 C 152 195 124.333339 202.66667 111 210 C 87 221.33333 68 236.66667 54 256 C 40 275.33335 33 296 33 318 C 33 344 38.666666 366 50 384 C 61.333337 402 75.666667 415.33335 93 424 C 110.333339 432.66667 127 438.66667 143 442 C 159 445.33335 173.66667 447 187 447 L 198 447 C 224.66667 447 248 442 268 432 L 283 424 L 292 431 C 298.66667 437 306 442.66667 314 448 L 322 448 L 326 448 C 328 448 331 446 335 442 L 335 310 L 329 304 L 301 304 C 297 308 295 312 295 316 Z "/>
<path transform="matrix(.01007848,0,0,-.0106280189,361.68055,99.62801)" stroke-width="0" stroke-linecap="butt" stroke-miterlimit="4" stroke-linejoin="miter" fill="none" stroke="#000000" stroke-opacity=".1294" d="M 295 316 C 295 342.66667 286 365.66667 268 385 C 250 404.33335 224 414 190 414 C 166 414 145.33333 409.66667 128 401 C 108 388.33335 98 371 98 349 C 97.333339 345.66667 97.333339 341.33335 98 336 C 98.666667 330.66667 104 322.66667 114 312 C 124 301.33335 138.33333 293 157 287 C 169 283.66667 183.66667 280.66667 201 278 C 218.33333 275.33335 233 272.33335 245 269 C 257 265.66667 267.66667 261.33335 277 256 C 288.33335 250.66667 299.33335 244 310 236 C 320.66667 228 331.33335 214.33333 342 195 C 352.66667 175.66667 358.33335 155 359 133 C 359 91.666667 346.33335 57.666669 321 31 C 295.66667 4.333332 254.66667 -9.333333 198 -10 L 190 -10 C 155.33333 -10 123.333339 2 94 26 L 86 19 L 77 10 C 73 6 69 2.3333336 65 -1 L 54 -11 L 46 -11 L 42 -11 C 40 -11 37 -9 33 -5 L 33 74 L 33 132 C 33 146 33.666669 154.33333 35 157 C 36.333333 159.66667 39.666669 161.33333 45 162 L 54 162 C 62 162 67.333339 160.66667 70 158 C 72.666667 155.33333 74.333339 151.33333 75 146 C 75.666667 140.66667 78 131.66667 82 119 C 86 106.333339 92.333339 92.333339 101 77 C 124.333339 43 156.66666 26 198 26 C 262.6667 26 295 52 295 104 C 295 123.333339 289 139 277 151 C 263.66667 167 236 179 194 187 C 152 195 124.333339 202.66667 111 210 C 87 221.33333 68 236.66667 54 256 C 40 275.33335 33 296 33 318 C 33 344 38.666666 366 50 384 C 61.333337 402 75.666667 415.33335 93 424 C 110.333339 432.66667 127 438.66667 143 442 C 159 445.33335 173.66667 447 187 447 L 198 447 C 224.66667 447 248 442 268 432 L 283 424 L 292 431 C 298.66667 437 306 442.66667 314 448 L 322 448 L 326 448 C 328 448 331 446 335 442 L 335 310 L 329 304 L 301 304 C 297 308 295 312 295 316 Z "/>
<g id="Layer-1" data-name="P">
</g>
<text xml:space="preserve" transform="matrix(.71980676 0 0 .71980676 0 0)" font-size="12" font-family="ArialMT"><tspan y="138" x="309.14064 318.47663 325.14863 331.82063 338.4926 342.48863 349.1606 352.4966 359.1686 362.5046 369.1766 375.8486 382.5206 385.8566 389.8526 396.5246 399.1886">Generate one rule</tspan></text>
<path transform="matrix(.71980676,0,0,.71980676,.35990338,.35990338)" stroke-width="1" stroke-linecap="butt" stroke-miterlimit="10" stroke-linejoin="miter" fill="none" stroke="#000000" d="M 618 220.93 L 1 220.43 "/>
<path transform="matrix(.71980676,0,0,.71980676,.35990338,.35990338)" d="M 466.5 45.25 C 466.49998 45.7917 466.4503 46.328199 466.351 46.85949 C 466.25175 47.39078 466.10475 47.906667 465.90998 48.407136 C 465.71525 48.9076 465.47654 49.383039 465.19383 49.83345 C 464.91114 50.283857 464.58988 50.700586 464.23005 51.08363 C 463.8702 51.466669 463.4787 51.808668 463.05558 52.10962 C 462.63246 52.410573 462.18586 52.6647 461.71574 52.872 C 461.2456 53.079305 460.761 53.235795 460.26194 53.341474 C 459.76283 53.447156 459.25886 53.499998 458.75 53.5 C 458.2411 53.499998 457.7371 53.447156 457.238 53.341474 C 456.7389 53.235795 456.25428 53.079305 455.78413 52.872 C 455.314 52.6647 454.86738 52.410573 454.44429 52.10962 C 454.02116 51.808668 453.6297 51.466669 453.2699 51.08363 C 452.91007 50.700586 452.58879 50.283857 452.30604 49.83345 C 452.02333 49.383039 451.7846 48.9076 451.58988 48.407136 C 451.39515 47.906667 451.24818 47.39078 451.1489 46.85949 C 451.04963 46.328199 450.99998 45.7917 451 45.25 C 450.99998 44.708295 451.0496 44.171796 451.14888 43.6405 C 451.24818 43.109209 451.39518 42.593328 451.5899 42.092859 C 451.7846 41.59239 452.02333 41.116949 452.30607 40.66654 C 452.58879 40.21613 452.91007 39.799406 453.2699 39.416368 C 453.6297 39.03332 454.02116 38.691324 454.44429 38.39037 C 454.8674 38.089418 455.31404 37.83529 455.78419 37.627988 C 456.2543 37.420686 456.7389 37.2642 457.238 37.15852 C 457.7371 37.05284 458.2411 37 458.75 37 C 459.25886 37 459.76283 37.05284 460.2619 37.15852 C 460.761 37.2642 461.2456 37.420686 461.71574 37.627988 C 462.18586 37.83529 462.63249 38.089418 463.0556 38.39037 C 463.47874 38.691324 463.8702 39.03332 464.23005 39.416368 C 464.58988 39.799406 464.91114 40.21613 465.19386 40.66654 C 465.47654 41.116949 465.71528 41.59239 465.91 42.092859 C 466.10475 42.593328 466.25178 43.109209 466.35105 43.6405 C 466.45033 44.171796 466.49998 44.708295 466.5 45.25 Z " fill="#009900"/>
</g>
</g>
</svg>
